<?xml version="1.0" encoding="UTF-8"?>
<svg width="360px" height="640px" viewBox="0 0 360 640" version="1.1" xmlns="http://www.w3.org/2000/svg" xmlns:xlink="http://www.w3.org/1999/xlink">
    <!-- Generator: Sketch 55.2 (78181) - https://sketchapp.com -->
    <title>Mobile Verification</title>
    <desc>Created with Sketch.</desc>
    <defs>
        <linearGradient x1="50%" y1="0%" x2="50%" y2="74.0366343%" id="linearGradient-1">
            <stop stop-color="#000000" stop-opacity="0" offset="0%"></stop>
            <stop stop-color="#292A2C" offset="100%"></stop>
        </linearGradient>
        <linearGradient x1="50%" y1="0%" x2="50%" y2="100%" id="linearGradient-2">
            <stop stop-color="#D5A842" offset="0%"></stop>
            <stop stop-color="#FEF2BF" offset="100%"></stop>
        </linearGradient>
        <linearGradient x1="50%" y1="0%" x2="50%" y2="100%" id="linearGradient-3">
            <stop stop-color="#D5A842" offset="0%"></stop>
            <stop stop-color="#FEF2BF" offset="100%"></stop>
        </linearGradient>
    </defs>
    <g id="Mobile-Verification" stroke="none" stroke-width="1" fill="none" fill-rule="evenodd">
        <rect fill="#000000" x="0" y="0" width="360" height="640"></rect>
        <rect id="Rectangle-Copy" fill="url(#linearGradient-1)" x="0" y="0" width="360" height="640"></rect>
        <g id="Group-2" transform="translate(53.000000, 154.000000)">
            <g id="Group" fill="url(#linearGradient-2)" stroke="url(#linearGradient-2)">
                <polygon id="Path-10" points="35.88 33.1623412 69.0203714 54.2683378 138 -3.58708879e-14 69.0203714 64.6192469"></polygon>
                <polygon id="Path-10" transform="translate(51.060000, 99.690377) scale(-1, -1) translate(-51.060000, -99.690377) " points="0 100.543094 33.1403714 121.649091 102.12 67.3807531 33.1403714 132"></polygon>
            </g>
            <path d="M113.080269,60.9457469 C112.394668,59.9004751 111.436858,59.0160276 110.206809,58.2923779 C108.976761,57.5687281 107.575333,57.2069087 106.002484,57.2069087 C104.348976,57.1667059 102.866891,57.42802 101.556183,57.9908587 C100.245476,58.5536973 99.1263502,59.3376394 98.1987726,60.3427085 C97.271195,61.3477776 96.5654401,62.5437918 96.0814865,63.9307872 C95.597533,65.3177825 95.3555599,66.8153129 95.3555599,68.4234234 C95.3555599,70.0315339 95.597533,71.5290644 96.0814865,72.9160597 C96.5654401,74.303055 97.271195,75.4990693 98.1987726,76.5041383 C99.1263502,77.5092074 100.245476,78.2931495 101.556183,78.8559882 C102.866891,79.4188269 104.348976,79.6801409 106.002484,79.6399381 C107.575333,79.6399381 108.976761,79.2781187 110.206809,78.554469 C111.436858,77.8308192 112.394668,76.9463717 113.080269,75.9010999 L116.346939,78.3735575 C114.935408,80.0218707 113.342418,81.2379861 111.567922,82.0219399 C109.793425,82.8058938 107.938298,83.2179659 106.002484,83.2581687 C103.703705,83.2983715 101.626769,82.9466026 99.7716137,82.2028515 C97.9164585,81.4591003 96.3335509,80.4238947 95.0228435,79.0972036 C93.7121361,77.7705124 92.7139969,76.1925776 92.0283961,74.3633519 C91.3427953,72.5341262 91,70.5541698 91,68.4234234 C91,66.292677 91.3427953,64.3127206 92.0283961,62.4834949 C92.7139969,60.6542692 93.7121361,59.0763345 95.0228435,57.7496433 C96.3335509,56.4229521 97.9164585,55.3877465 99.7716137,54.6439954 C101.626769,53.9002443 103.703705,53.5484754 106.002484,53.5886781 C107.938298,53.6288809 109.793425,54.040953 111.567922,54.8249069 C113.342418,55.6088608 114.935408,56.8249761 116.346939,58.4732894 L113.080269,60.9457469 Z M126.816327,82.1621622 L122.959184,82.1621622 L122.959184,36.5495495 L126.816327,36.5495495 L126.816327,82.1621622 Z M156.826581,82.5331081 C156.745149,81.7644982 156.694255,81.0060129 156.673897,80.2576295 C156.653539,79.5092461 156.64336,78.7507609 156.64336,77.9821509 L156.521212,77.9821509 C156.073336,78.7507609 155.503321,79.4586804 154.811149,80.1059309 C154.118977,80.7531814 153.345385,81.309404 152.490349,81.7746152 C151.635313,82.2398265 150.729396,82.6038995 149.77257,82.866845 C148.815744,83.1297905 147.869111,83.2612613 146.932643,83.2612613 C143.268203,83.2612613 140.56063,82.3005132 138.809842,80.3789884 C137.059054,78.4574635 136.183673,75.7168033 136.183673,72.1569257 L136.183673,54.1351351 L140.214537,54.1351351 L140.214537,69.8511074 C140.214537,71.4287804 140.336683,72.8243933 140.580979,74.037988 C140.825275,75.2515826 141.242608,76.2730095 141.83299,77.1022992 C142.423372,77.9315889 143.217322,78.5586034 144.214864,78.9833615 C145.212406,79.4081196 146.464404,79.6204955 147.970896,79.6204955 C148.174476,79.6204955 148.744491,79.5395904 149.680959,79.3777778 C150.617427,79.2159652 151.604775,78.7709871 152.643033,78.0428303 C153.681291,77.3146735 154.607566,76.2224547 155.421886,74.7661411 C156.236206,73.3098276 156.64336,71.2872001 156.64336,68.6981982 L156.64336,54.1351351 L160.674223,54.1351351 L160.674223,76.2831269 C160.674223,77.0517368 160.70476,78.022598 160.765834,79.1957395 C160.826908,80.368881 160.89816,81.4813261 160.979592,82.5331081 L156.826581,82.5331081 Z M185.617206,61.0045045 C185.008341,59.8383813 184.196532,58.9135389 183.181757,58.2299495 C182.166981,57.54636 180.928973,57.2045704 179.467696,57.2045704 C178.777649,57.2045704 178.077464,57.2849915 177.367121,57.4458361 C176.656778,57.6066807 176.017479,57.8579965 175.449205,58.1997913 C174.880931,58.541586 174.424289,58.9738493 174.079265,59.4965942 C173.734241,60.019339 173.561732,60.6627077 173.561732,61.4267194 C173.561732,62.7536871 174.028522,63.7187401 174.962115,64.3219073 C175.895709,64.9250744 177.296078,65.4478115 179.163265,65.890134 L183.242643,66.8551967 C185.231603,67.2975192 186.885663,68.1922038 188.204871,69.5392771 C189.524079,70.8863504 190.183673,72.5651405 190.183673,74.5756976 C190.183673,76.1037211 189.869098,77.4206163 189.239937,78.5264228 C188.610776,79.6322292 187.778672,80.5369664 186.743601,81.2406614 C185.70853,81.9443564 184.521261,82.4570408 183.181757,82.7787299 C181.84226,83.1004191 180.482474,83.2612613 179.102379,83.2612613 C176.910464,83.2612613 174.870795,82.8491032 172.983313,82.0247748 C171.09583,81.2004463 169.482361,79.7830248 168.142857,77.7724676 L171.613372,75.4201274 C172.425193,76.706884 173.450101,77.7322528 174.688127,78.4962646 C175.926153,79.2602763 177.397556,79.6422764 179.102379,79.6422764 C179.9142,79.6422764 180.726008,79.5518027 181.537828,79.3708526 C182.349649,79.1899024 183.070129,78.9084286 183.69929,78.5264228 C184.328451,78.1444169 184.835831,77.6518378 185.221445,77.0486706 C185.60706,76.4455035 185.799865,75.741819 185.799865,74.9375961 C185.799865,73.5302061 185.272189,72.51489 184.216823,71.8916172 C183.161456,71.2683445 181.882858,70.7757654 180.38099,70.4138651 L176.484271,69.5091189 C175.997179,69.3884854 175.337584,69.1874327 174.505468,68.9059547 C173.673352,68.6244767 172.861544,68.2022661 172.070019,67.63931 C171.278494,67.076354 170.598605,66.3425117 170.03033,65.4377609 C169.462056,64.5330102 169.177923,63.4171677 169.177923,62.0902 C169.177923,60.6425988 169.472204,59.3759668 170.060773,58.2902659 C170.649343,57.204565 171.440856,56.3199331 172.435337,55.6363437 C173.429817,54.9527542 174.556201,54.4400698 175.814522,54.0982751 C177.072844,53.7564804 178.371738,53.5855856 179.711241,53.5855856 C181.700202,53.5855856 183.547066,53.9675857 185.251889,54.7315975 C186.956712,55.4956092 188.2759,56.8024517 189.209494,58.6521644 L185.617206,61.0045045 Z M202.306122,43.4189189 C202.306122,44.3004924 201.990437,45.0246312 201.359056,45.591357 C200.727675,46.1580828 200.033167,46.4414414 199.27551,46.4414414 C198.517853,46.4414414 197.823342,46.1580828 197.191964,45.591357 C196.560584,45.0246312 196.244898,44.3004924 196.244898,43.4189189 C196.244898,42.5373454 196.560584,41.8132067 197.191964,41.2464809 C197.823342,40.679755 198.517853,40.3963964 199.27551,40.3963964 C200.033167,40.3963964 200.727675,40.679755 201.359056,41.2464809 C201.990437,41.8132067 202.306122,42.5373454 202.306122,43.4189189 Z M201.204082,82.7117117 L197.346939,82.7117117 L197.346939,54.1351351 L201.204082,54.1351351 L201.204082,82.7117117 Z M224.271239,57.8961149 L217.431897,57.8961149 L217.431897,82.7117117 L213.36526,82.7117117 L213.36526,57.8961149 L207.265306,57.8961149 L207.265306,54.2467624 L213.36526,54.2467624 L213.36526,46.4614771 C213.36526,42.6904607 214.24841,40.0041586 216.014736,38.4024904 C217.781061,36.8008221 220.122434,36 223.038925,36 C223.614008,36 224.199352,36.040548 224.794973,36.1216451 C225.390594,36.2027422 225.975938,36.3041121 226.55102,36.4257578 L225.811632,40.0751103 C225.318704,39.9534646 224.805245,39.8520947 224.271239,39.7709976 C223.737234,39.6899004 223.203237,39.6493525 222.669231,39.6493525 C221.560143,39.6493525 220.656455,39.8318183 219.95814,40.1967553 C219.259826,40.5616906 218.725828,41.0786789 218.356132,41.7477302 C217.986436,42.4167815 217.739976,43.1973296 217.616744,44.089398 C217.493512,44.9814664 217.431897,45.9343433 217.431897,46.9480574 L217.431897,54.2467624 L224.271239,54.2467624 L224.271239,57.8961149 Z M239.437356,77.5655062 L248.134478,54.1351351 L253,54.1351351 L238.768347,89.8558559 C237.916876,92.0354362 236.832281,93.7710018 235.514529,95.062605 C234.196777,96.3542081 232.301269,97 229.82795,97 C229.219756,97 228.601436,96.979819 227.972969,96.9394564 C227.344503,96.8990938 226.726182,96.7780078 226.117989,96.5761948 L226.543722,92.7014048 C227.395193,93.1453934 228.408833,93.3673843 229.584674,93.3673843 C231.003791,93.3673843 232.118796,92.9234024 232.92972,92.0354253 C233.740645,91.1474481 234.450193,89.8962263 235.058386,88.2817224 L237.126233,82.8327989 L225.44898,54.1351351 L230.496959,54.1351351 L239.437356,77.5655062 Z" id="clusify" stroke="url(#linearGradient-3)" fill="url(#linearGradient-3)"></path>
        </g>
        <text id="Please-enter-your-mo" font-family="Avenir-Book, Avenir" font-size="18" font-weight="normal" line-spacing="24" fill="#FFFFFF">
            <tspan x="15" y="482">Please enter your mobile number to </tspan>
            <tspan x="15" y="506">proceed</tspan>
        </text>
        <rect id="Rectangle" fill="#000000" x="15" y="529" width="330" height="48"></rect>
        <g id="Flag_of_India" transform="translate(22.000000, 535.000000)" fill-rule="nonzero">
            <rect id="Rectangle" fill="#FF9933" x="0" y="5.31818182" width="38.5568182" height="25.7045455"></rect>
            <rect id="Rectangle" fill="#FFFFFF" x="0" y="13.8863636" width="38.5568182" height="8.56818182"></rect>
            <rect id="Rectangle" fill="#128807" x="0" y="22.4545455" width="38.5568182" height="8.56818182"></rect>
            <g id="Group" transform="translate(5.675682, 0.366364)">
                <circle id="Oval" fill="#000088" cx="13.6027273" cy="17.8040909" r="3.42727273"></circle>
                <circle id="Oval" fill="#FFFFFF" cx="13.6027273" cy="17.8040909" r="2.99886364"></circle>
                <circle id="Oval" fill="#000088" cx="13.6027273" cy="17.8040909" r="1"></circle>
                <g id="d" transform="translate(0.514091, 7.800000)" fill="#000088">
                    <g id="c" transform="translate(5.743636, 5.944545)">
                        <g id="b" transform="translate(4.544091, 2.286818)">
                            <g id="a" transform="translate(2.629545, 1.057727)">
                                <circle id="Oval" transform="translate(3.144572, 1.106430) rotate(7.500000) translate(-3.144572, -1.106430) " cx="3.14457158" cy="1.10643025" r="1"></circle>
                                <path d="M0.171363636,3.71386364 L0.274181818,1.91454545 C0.274181818,1.91454545 0.171363636,1.05772727 0.171363636,1.05772727 C0.171363636,1.05772727 0.0685454545,1.91454545 0.0685454545,1.91454545 L0.171363636,3.71386364 Z" id="Path"></path>
                            </g>
                            <g id="a-link" transform="translate(3.850140, 4.065421) rotate(15.000000) translate(-3.850140, -4.065421) translate(1.191049, 1.406330)">
                                <g id="a" transform="translate(0.880855, 0.001079)">
                                    <circle id="Oval" transform="translate(3.144572, 1.106430) rotate(7.500000) translate(-3.144572, -1.106430) " cx="3.14457158" cy="1.10643025" r="1"></circle>
                                    <path d="M0.171363636,3.71386364 L0.274181818,1.91454545 C0.274181818,1.91454545 0.171363636,1.05772727 0.171363636,1.05772727 C0.171363636,1.05772727 0.0685454545,1.91454545 0.0685454545,1.91454545 L0.171363636,3.71386364 Z" id="Path"></path>
                                </g>
                            </g>
                        </g>
                        <g id="b-link" transform="translate(6.667533, 6.746185) rotate(30.000000) translate(-6.667533, -6.746185) translate(2.235715, 2.314367)">
                            <g id="b" transform="translate(0.874293, -0.006341)">
                                <g id="a" transform="translate(2.629545, 1.057727)">
                                    <circle id="Oval" transform="translate(3.144572, 1.106430) rotate(7.500000) translate(-3.144572, -1.106430) " cx="3.14457158" cy="1.10643025" r="1"></circle>
                                    <path d="M0.171363636,3.71386364 L0.274181818,1.91454545 C0.274181818,1.91454545 0.171363636,1.05772727 0.171363636,1.05772727 C0.171363636,1.05772727 0.0685454545,1.91454545 0.0685454545,1.91454545 L0.171363636,3.71386364 Z" id="Path"></path>
                                </g>
                                <g id="a-link" transform="translate(3.850140, 4.065421) rotate(15.000000) translate(-3.850140, -4.065421) translate(1.191049, 1.406330)">
                                    <g id="a" transform="translate(0.880855, 0.001079)">
                                        <circle id="Oval" transform="translate(3.144572, 1.106430) rotate(7.500000) translate(-3.144572, -1.106430) " cx="3.14457158" cy="1.10643025" r="1"></circle>
                                        <path d="M0.171363636,3.71386364 L0.274181818,1.91454545 C0.274181818,1.91454545 0.171363636,1.05772727 0.171363636,1.05772727 C0.171363636,1.05772727 0.0685454545,1.91454545 0.0685454545,1.91454545 L0.171363636,3.71386364 Z" id="Path"></path>
                                    </g>
                                </g>
                            </g>
                        </g>
                    </g>
                    <g id="c-link" transform="translate(9.879804, 10.554527) rotate(60.000000) translate(-9.879804, -10.554527) translate(2.788895, 3.463618)">
                        <g id="c" transform="translate(0.873634, -0.022785)">
                            <g id="b" transform="translate(4.544091, 2.286818)">
                                <g id="a" transform="translate(2.629545, 1.057727)">
                                    <circle id="Oval" transform="translate(3.144572, 1.106430) rotate(7.500000) translate(-3.144572, -1.106430) " cx="3.14457158" cy="1.10643025" r="1"></circle>
                                    <path d="M0.171363636,3.71386364 L0.274181818,1.91454545 C0.274181818,1.91454545 0.171363636,1.05772727 0.171363636,1.05772727 C0.171363636,1.05772727 0.0685454545,1.91454545 0.0685454545,1.91454545 L0.171363636,3.71386364 Z" id="Path"></path>
                                </g>
                                <g id="a-link" transform="translate(3.850140, 4.065421) rotate(15.000000) translate(-3.850140, -4.065421) translate(1.191049, 1.406330)">
                                    <g id="a" transform="translate(0.880855, 0.001079)">
                                        <circle id="Oval" transform="translate(3.144572, 1.106430) rotate(7.500000) translate(-3.144572, -1.106430) " cx="3.14457158" cy="1.10643025" r="1"></circle>
                                        <path d="M0.171363636,3.71386364 L0.274181818,1.91454545 C0.274181818,1.91454545 0.171363636,1.05772727 0.171363636,1.05772727 C0.171363636,1.05772727 0.0685454545,1.91454545 0.0685454545,1.91454545 L0.171363636,3.71386364 Z" id="Path"></path>
                                    </g>
                                </g>
                            </g>
                            <g id="b-link" transform="translate(6.667533, 6.746185) rotate(30.000000) translate(-6.667533, -6.746185) translate(2.235715, 2.314367)">
                                <g id="b" transform="translate(0.874293, -0.006341)">
                                    <g id="a" transform="translate(2.629545, 1.057727)">
                                        <circle id="Oval" transform="translate(3.144572, 1.106430) rotate(7.500000) translate(-3.144572, -1.106430) " cx="3.14457158" cy="1.10643025" r="1"></circle>
                                        <path d="M0.171363636,3.71386364 L0.274181818,1.91454545 C0.274181818,1.91454545 0.171363636,1.05772727 0.171363636,1.05772727 C0.171363636,1.05772727 0.0685454545,1.91454545 0.0685454545,1.91454545 L0.171363636,3.71386364 Z" id="Path"></path>
                                    </g>
                                    <g id="a-link" transform="translate(3.850140, 4.065421) rotate(15.000000) translate(-3.850140, -4.065421) translate(1.191049, 1.406330)">
                                        <g id="a" transform="translate(0.880855, 0.001079)">
                                            <circle id="Oval" transform="translate(3.144572, 1.106430) rotate(7.500000) translate(-3.144572, -1.106430) " cx="3.14457158" cy="1.10643025" r="1"></circle>
                                            <path d="M0.171363636,3.71386364 L0.274181818,1.91454545 C0.274181818,1.91454545 0.171363636,1.05772727 0.171363636,1.05772727 C0.171363636,1.05772727 0.0685454545,1.91454545 0.0685454545,1.91454545 L0.171363636,3.71386364 Z" id="Path"></path>
                                        </g>
                                    </g>
                                </g>
                            </g>
                        </g>
                    </g>
                </g>
                <g id="d-link" transform="translate(15.475433, 14.999498) rotate(120.000000) translate(-15.475433, -14.999498) translate(4.839070, 4.363135)" fill="#000088">
                    <g id="d" transform="translate(0.912929, 0.851788)">
                        <g id="c" transform="translate(5.743636, 5.944545)">
                            <g id="b" transform="translate(4.544091, 2.286818)">
                                <g id="a" transform="translate(2.629545, 1.057727)">
                                    <circle id="Oval" transform="translate(3.144572, 1.106430) rotate(7.500000) translate(-3.144572, -1.106430) " cx="3.14457158" cy="1.10643025" r="1"></circle>
                                    <path d="M0.171363636,3.71386364 L0.274181818,1.91454545 C0.274181818,1.91454545 0.171363636,1.05772727 0.171363636,1.05772727 C0.171363636,1.05772727 0.0685454545,1.91454545 0.0685454545,1.91454545 L0.171363636,3.71386364 Z" id="Path"></path>
                                </g>
                                <g id="a-link" transform="translate(3.850140, 4.065421) rotate(15.000000) translate(-3.850140, -4.065421) translate(1.191049, 1.406330)">
                                    <g id="a" transform="translate(0.880855, 0.001079)">
                                        <circle id="Oval" transform="translate(3.144572, 1.106430) rotate(7.500000) translate(-3.144572, -1.106430) " cx="3.14457158" cy="1.10643025" r="1"></circle>
                                        <path d="M0.171363636,3.71386364 L0.274181818,1.91454545 C0.274181818,1.91454545 0.171363636,1.05772727 0.171363636,1.05772727 C0.171363636,1.05772727 0.0685454545,1.91454545 0.0685454545,1.91454545 L0.171363636,3.71386364 Z" id="Path"></path>
                                    </g>
                                </g>
                            </g>
                            <g id="b-link" transform="translate(6.667533, 6.746185) rotate(30.000000) translate(-6.667533, -6.746185) translate(2.235715, 2.314367)">
                                <g id="b" transform="translate(0.874293, -0.006341)">
                                    <g id="a" transform="translate(2.629545, 1.057727)">
                                        <circle id="Oval" transform="translate(3.144572, 1.106430) rotate(7.500000) translate(-3.144572, -1.106430) " cx="3.14457158" cy="1.10643025" r="1"></circle>
                                        <path d="M0.171363636,3.71386364 L0.274181818,1.91454545 C0.274181818,1.91454545 0.171363636,1.05772727 0.171363636,1.05772727 C0.171363636,1.05772727 0.0685454545,1.91454545 0.0685454545,1.91454545 L0.171363636,3.71386364 Z" id="Path"></path>
                                    </g>
                                    <g id="a-link" transform="translate(3.850140, 4.065421) rotate(15.000000) translate(-3.850140, -4.065421) translate(1.191049, 1.406330)">
                                        <g id="a" transform="translate(0.880855, 0.001079)">
                                            <circle id="Oval" transform="translate(3.144572, 1.106430) rotate(7.500000) translate(-3.144572, -1.106430) " cx="3.14457158" cy="1.10643025" r="1"></circle>
                                            <path d="M0.171363636,3.71386364 L0.274181818,1.91454545 C0.274181818,1.91454545 0.171363636,1.05772727 0.171363636,1.05772727 C0.171363636,1.05772727 0.0685454545,1.91454545 0.0685454545,1.91454545 L0.171363636,3.71386364 Z" id="Path"></path>
                                        </g>
                                    </g>
                                </g>
                            </g>
                        </g>
                        <g id="c-link" transform="translate(9.879804, 10.554527) rotate(60.000000) translate(-9.879804, -10.554527) translate(2.788895, 3.463618)">
                            <g id="c" transform="translate(0.873634, -0.022785)">
                                <g id="b" transform="translate(4.544091, 2.286818)">
                                    <g id="a" transform="translate(2.629545, 1.057727)">
                                        <circle id="Oval" transform="translate(3.144572, 1.106430) rotate(7.500000) translate(-3.144572, -1.106430) " cx="3.14457158" cy="1.10643025" r="1"></circle>
                                        <path d="M0.171363636,3.71386364 L0.274181818,1.91454545 C0.274181818,1.91454545 0.171363636,1.05772727 0.171363636,1.05772727 C0.171363636,1.05772727 0.0685454545,1.91454545 0.0685454545,1.91454545 L0.171363636,3.71386364 Z" id="Path"></path>
                                    </g>
                                    <g id="a-link" transform="translate(3.850140, 4.065421) rotate(15.000000) translate(-3.850140, -4.065421) translate(1.191049, 1.406330)">
                                        <g id="a" transform="translate(0.880855, 0.001079)">
                                            <circle id="Oval" transform="translate(3.144572, 1.106430) rotate(7.500000) translate(-3.144572, -1.106430) " cx="3.14457158" cy="1.10643025" r="1"></circle>
                                            <path d="M0.171363636,3.71386364 L0.274181818,1.91454545 C0.274181818,1.91454545 0.171363636,1.05772727 0.171363636,1.05772727 C0.171363636,1.05772727 0.0685454545,1.91454545 0.0685454545,1.91454545 L0.171363636,3.71386364 Z" id="Path"></path>
                                        </g>
                                    </g>
                                </g>
                                <g id="b-link" transform="translate(6.667533, 6.746185) rotate(30.000000) translate(-6.667533, -6.746185) translate(2.235715, 2.314367)">
                                    <g id="b" transform="translate(0.874293, -0.006341)">
                                        <g id="a" transform="translate(2.629545, 1.057727)">
                                            <circle id="Oval" transform="translate(3.144572, 1.106430) rotate(7.500000) translate(-3.144572, -1.106430) " cx="3.14457158" cy="1.10643025" r="1"></circle>
                                            <path d="M0.171363636,3.71386364 L0.274181818,1.91454545 C0.274181818,1.91454545 0.171363636,1.05772727 0.171363636,1.05772727 C0.171363636,1.05772727 0.0685454545,1.91454545 0.0685454545,1.91454545 L0.171363636,3.71386364 Z" id="Path"></path>
                                        </g>
                                        <g id="a-link" transform="translate(3.850140, 4.065421) rotate(15.000000) translate(-3.850140, -4.065421) translate(1.191049, 1.406330)">
                                            <g id="a" transform="translate(0.880855, 0.001079)">
                                                <circle id="Oval" transform="translate(3.144572, 1.106430) rotate(7.500000) translate(-3.144572, -1.106430) " cx="3.14457158" cy="1.10643025" r="1"></circle>
                                                <path d="M0.171363636,3.71386364 L0.274181818,1.91454545 C0.274181818,1.91454545 0.171363636,1.05772727 0.171363636,1.05772727 C0.171363636,1.05772727 0.0685454545,1.91454545 0.0685454545,1.91454545 L0.171363636,3.71386364 Z" id="Path"></path>
                                            </g>
                                        </g>
                                    </g>
                                </g>
                            </g>
                        </g>
                    </g>
                </g>
                <g id="d-link" transform="translate(15.354390, 19.611060) rotate(-120.000000) translate(-15.354390, -19.611060) translate(4.718026, 8.974696)" fill="#000088">
                    <g id="d" transform="translate(-0.011560, 0.018773)">
                        <g id="c" transform="translate(5.743636, 5.944545)">
                            <g id="b" transform="translate(4.544091, 2.286818)">
                                <g id="a" transform="translate(2.629545, 1.057727)">
                                    <circle id="Oval" transform="translate(3.144572, 1.106430) rotate(7.500000) translate(-3.144572, -1.106430) " cx="3.14457158" cy="1.10643025" r="1"></circle>
                                    <path d="M0.171363636,3.71386364 L0.274181818,1.91454545 C0.274181818,1.91454545 0.171363636,1.05772727 0.171363636,1.05772727 C0.171363636,1.05772727 0.0685454545,1.91454545 0.0685454545,1.91454545 L0.171363636,3.71386364 Z" id="Path"></path>
                                </g>
                                <g id="a-link" transform="translate(3.850140, 4.065421) rotate(15.000000) translate(-3.850140, -4.065421) translate(1.191049, 1.406330)">
                                    <g id="a" transform="translate(0.880855, 0.001079)">
                                        <circle id="Oval" transform="translate(3.144572, 1.106430) rotate(7.500000) translate(-3.144572, -1.106430) " cx="3.14457158" cy="1.10643025" r="1"></circle>
                                        <path d="M0.171363636,3.71386364 L0.274181818,1.91454545 C0.274181818,1.91454545 0.171363636,1.05772727 0.171363636,1.05772727 C0.171363636,1.05772727 0.0685454545,1.91454545 0.0685454545,1.91454545 L0.171363636,3.71386364 Z" id="Path"></path>
                                    </g>
                                </g>
                            </g>
                            <g id="b-link" transform="translate(6.667533, 6.746185) rotate(30.000000) translate(-6.667533, -6.746185) translate(2.235715, 2.314367)">
                                <g id="b" transform="translate(0.874293, -0.006341)">
                                    <g id="a" transform="translate(2.629545, 1.057727)">
                                        <circle id="Oval" transform="translate(3.144572, 1.106430) rotate(7.500000) translate(-3.144572, -1.106430) " cx="3.14457158" cy="1.10643025" r="1"></circle>
                                        <path d="M0.171363636,3.71386364 L0.274181818,1.91454545 C0.274181818,1.91454545 0.171363636,1.05772727 0.171363636,1.05772727 C0.171363636,1.05772727 0.0685454545,1.91454545 0.0685454545,1.91454545 L0.171363636,3.71386364 Z" id="Path"></path>
                                    </g>
                                    <g id="a-link" transform="translate(3.850140, 4.065421) rotate(15.000000) translate(-3.850140, -4.065421) translate(1.191049, 1.406330)">
                                        <g id="a" transform="translate(0.880855, 0.001079)">
                                            <circle id="Oval" transform="translate(3.144572, 1.106430) rotate(7.500000) translate(-3.144572, -1.106430) " cx="3.14457158" cy="1.10643025" r="1"></circle>
                                            <path d="M0.171363636,3.71386364 L0.274181818,1.91454545 C0.274181818,1.91454545 0.171363636,1.05772727 0.171363636,1.05772727 C0.171363636,1.05772727 0.0685454545,1.91454545 0.0685454545,1.91454545 L0.171363636,3.71386364 Z" id="Path"></path>
                                        </g>
                                    </g>
                                </g>
                            </g>
                        </g>
                        <g id="c-link" transform="translate(9.879804, 10.554527) rotate(60.000000) translate(-9.879804, -10.554527) translate(2.788895, 3.463618)">
                            <g id="c" transform="translate(0.873634, -0.022785)">
                                <g id="b" transform="translate(4.544091, 2.286818)">
                                    <g id="a" transform="translate(2.629545, 1.057727)">
                                        <circle id="Oval" transform="translate(3.144572, 1.106430) rotate(7.500000) translate(-3.144572, -1.106430) " cx="3.14457158" cy="1.10643025" r="1"></circle>
                                        <path d="M0.171363636,3.71386364 L0.274181818,1.91454545 C0.274181818,1.91454545 0.171363636,1.05772727 0.171363636,1.05772727 C0.171363636,1.05772727 0.0685454545,1.91454545 0.0685454545,1.91454545 L0.171363636,3.71386364 Z" id="Path"></path>
                                    </g>
                                    <g id="a-link" transform="translate(3.850140, 4.065421) rotate(15.000000) translate(-3.850140, -4.065421) translate(1.191049, 1.406330)">
                                        <g id="a" transform="translate(0.880855, 0.001079)">
                                            <circle id="Oval" transform="translate(3.144572, 1.106430) rotate(7.500000) translate(-3.144572, -1.106430) " cx="3.14457158" cy="1.10643025" r="1"></circle>
                                            <path d="M0.171363636,3.71386364 L0.274181818,1.91454545 C0.274181818,1.91454545 0.171363636,1.05772727 0.171363636,1.05772727 C0.171363636,1.05772727 0.0685454545,1.91454545 0.0685454545,1.91454545 L0.171363636,3.71386364 Z" id="Path"></path>
                                        </g>
                                    </g>
                                </g>
                                <g id="b-link" transform="translate(6.667533, 6.746185) rotate(30.000000) translate(-6.667533, -6.746185) translate(2.235715, 2.314367)">
                                    <g id="b" transform="translate(0.874293, -0.006341)">
                                        <g id="a" transform="translate(2.629545, 1.057727)">
                                            <circle id="Oval" transform="translate(3.144572, 1.106430) rotate(7.500000) translate(-3.144572, -1.106430) " cx="3.14457158" cy="1.10643025" r="1"></circle>
                                            <path d="M0.171363636,3.71386364 L0.274181818,1.91454545 C0.274181818,1.91454545 0.171363636,1.05772727 0.171363636,1.05772727 C0.171363636,1.05772727 0.0685454545,1.91454545 0.0685454545,1.91454545 L0.171363636,3.71386364 Z" id="Path"></path>
                                        </g>
                                        <g id="a-link" transform="translate(3.850140, 4.065421) rotate(15.000000) translate(-3.850140, -4.065421) translate(1.191049, 1.406330)">
                                            <g id="a" transform="translate(0.880855, 0.001079)">
                                                <circle id="Oval" transform="translate(3.144572, 1.106430) rotate(7.500000) translate(-3.144572, -1.106430) " cx="3.14457158" cy="1.10643025" r="1"></circle>
                                                <path d="M0.171363636,3.71386364 L0.274181818,1.91454545 C0.274181818,1.91454545 0.171363636,1.05772727 0.171363636,1.05772727 C0.171363636,1.05772727 0.0685454545,1.91454545 0.0685454545,1.91454545 L0.171363636,3.71386364 Z" id="Path"></path>
                                            </g>
                                        </g>
                                    </g>
                                </g>
                            </g>
                        </g>
                    </g>
                </g>
            </g>
        </g>
        <polygon id="Triangle" fill="#D8D8D8" transform="translate(73.500000, 553.500000) scale(1, -1) translate(-73.500000, -553.500000) " points="73.5 550 79 557 68 557"></polygon>
        <text id="+91" font-family="Avenir-Book, Avenir" font-size="18" font-weight="normal" fill="#FFFFFF">
            <tspan x="92" y="559">+91</tspan>
        </text>
        <text id="Enter-Mobile-Number" opacity="0.687523251" font-family="Avenir-Book, Avenir" font-size="16" font-weight="normal" fill="#FFFFFF">
            <tspan x="135" y="558">Enter Mobile Number</tspan>
        </text>
    </g>
</svg>