<?xml version="1.0" encoding="UTF-8"?>
<svg width="360px" height="585px" viewBox="0 0 360 585" version="1.1" xmlns="http://www.w3.org/2000/svg" xmlns:xlink="http://www.w3.org/1999/xlink">
    <!-- Generator: Sketch 55.2 (78181) - https://sketchapp.com -->
    <title>Orders</title>
    <desc>Created with Sketch.</desc>
    <defs>
        <linearGradient x1="50%" y1="0%" x2="50%" y2="74.0366343%" id="linearGradient-1">
            <stop stop-color="#000000" stop-opacity="0" offset="0%"></stop>
            <stop stop-color="#292A2C" offset="100%"></stop>
        </linearGradient>
        <rect id="path-2" x="0" y="2.99831504" width="360" height="99.1613347"></rect>
        <filter x="-1.9%" y="-5.0%" width="103.9%" height="114.1%" filterUnits="objectBoundingBox" id="filter-3">
            <feOffset dx="0" dy="2" in="SourceAlpha" result="shadowOffsetOuter1"></feOffset>
            <feGaussianBlur stdDeviation="2" in="shadowOffsetOuter1" result="shadowBlurOuter1"></feGaussianBlur>
            <feColorMatrix values="0 0 0 0 0   0 0 0 0 0   0 0 0 0 0  0 0 0 0.5 0" type="matrix" in="shadowBlurOuter1"></feColorMatrix>
        </filter>
        <linearGradient x1="50%" y1="0%" x2="50%" y2="100%" id="linearGradient-4">
            <stop stop-color="#FEF2BF" offset="0%"></stop>
            <stop stop-color="#D5A842" offset="100%"></stop>
        </linearGradient>
        <text id="text-5" font-family="Avenir-Heavy, Avenir" font-size="15" font-weight="600" fill="#000000">
            <tspan x="62.165" y="77">Upcoming</tspan>
        </text>
        <filter x="-2.8%" y="-5.0%" width="105.6%" height="120.0%" filterUnits="objectBoundingBox" id="filter-6">
            <feOffset dx="0" dy="1" in="SourceAlpha" result="shadowOffsetOuter1"></feOffset>
            <feGaussianBlur stdDeviation="0.5" in="shadowOffsetOuter1" result="shadowBlurOuter1"></feGaussianBlur>
            <feColorMatrix values="0 0 0 0 1   0 0 0 0 1   0 0 0 0 1  0 0 0 0.294662369 0" type="matrix" in="shadowBlurOuter1"></feColorMatrix>
        </filter>
        <text id="text-7" font-family="Avenir-Heavy, Avenir" font-size="15" font-weight="600" fill="#FFFFFF">
            <tspan x="209" y="77">Redeem/Cancel</tspan>
        </text>
        <filter x="-0.9%" y="-5.0%" width="103.6%" height="120.0%" filterUnits="objectBoundingBox" id="filter-8">
            <feOffset dx="1" dy="1" in="SourceAlpha" result="shadowOffsetOuter1"></feOffset>
            <feGaussianBlur stdDeviation="0.5" in="shadowOffsetOuter1" result="shadowBlurOuter1"></feGaussianBlur>
            <feColorMatrix values="0 0 0 0 0   0 0 0 0 0   0 0 0 0 0  0 0 0 0.5 0" type="matrix" in="shadowBlurOuter1"></feColorMatrix>
        </filter>
    </defs>
    <g id="Orders" stroke="none" stroke-width="1" fill="none" fill-rule="evenodd">
        <rect fill="#000000" x="0" y="0" width="360" height="585"></rect>
        <rect id="Rectangle-Copy" fill="url(#linearGradient-1)" x="0" y="0" width="360" height="586"></rect>
        <rect id="Rectangle" fill="#333333" x="14" y="112" width="334" height="473"></rect>
        <g id="chevron-right" opacity="0.54" transform="translate(327.000000, 159.000000)" fill="#FFFFFF">
            <polygon id="Shape" points="0.599975586 1.4 1.99997559 0 7.99997559 6 1.99997559 12 0.599975586 10.6 5.19997559 6"></polygon>
        </g>
        <g id="chevron-right" opacity="0.54" transform="translate(327.000000, 267.000000)" fill="#FFFFFF">
            <polygon id="Shape" points="0.599975586 1.4 1.99997559 0 7.99997559 6 1.99997559 12 0.599975586 10.6 5.19997559 6"></polygon>
        </g>
        <g id="chevron-right" opacity="0.54" transform="translate(327.000000, 377.000000)" fill="#FFFFFF">
            <polygon id="Shape" points="0.599975586 1.4 1.99997559 0 7.99997559 6 1.99997559 12 0.599975586 10.6 5.19997559 6"></polygon>
        </g>
        <text id="WEST-VIEW" font-family="Avenir-Heavy, Avenir" font-size="13" font-weight="600" fill="#FFFFFF">
            <tspan x="23" y="133">WEST VIEW</tspan>
        </text>
        <text id="WEST-VIEW-Copy-2" font-family="Avenir-Heavy, Avenir" font-size="13" font-weight="600" fill="#FFFFFF">
            <tspan x="23" y="353">WEST VIEW</tspan>
        </text>
        <text id="WEST-VIEW-Copy" font-family="Avenir-Heavy, Avenir" font-size="13" font-weight="600" fill="#FFFFFF">
            <tspan x="23" y="243">WEST VIEW</tspan>
        </text>
        <text id="20th-April,-2019,-Sa" font-family="Avenir-Roman, Avenir" font-size="12" font-weight="normal" line-spacing="17" fill="#FFFFFF">
            <tspan x="23" y="182">20th April, 2019, Saturday, 6:30 PM</tspan>
        </text>
        <text id="20th-April,-2019,-Sa" font-family="Avenir-Roman, Avenir" font-size="12" font-weight="normal" line-spacing="17" fill="#FFFFFF">
            <tspan x="23" y="402">20th April, 2019, Saturday, 6:30 PM</tspan>
        </text>
        <text id="20th-April,-2019,-Sa" font-family="Avenir-Roman, Avenir" font-size="12" font-weight="normal" line-spacing="17" fill="#FFFFFF">
            <tspan x="23" y="292">20th April, 2019, Saturday, 6:30 PM</tspan>
        </text>
        <rect id="Rectangle" fill="#FFFCA4" x="23" y="142" width="161" height="20"></rect>
        <rect id="Rectangle-Copy-5" fill="#FFFCA4" x="23" y="362" width="161" height="20"></rect>
        <rect id="Rectangle-Copy-3" fill="#FFFCA4" x="23" y="252" width="161" height="20"></rect>
        <text id="Order-ID---#D5698BT3" font-family="Avenir-Book, Avenir" font-size="13" font-weight="normal" fill="#333333">
            <tspan x="27" y="156">Order ID - #D5698BT3448</tspan>
        </text>
        <text id="Order-ID---#D5698BT3-Copy-2" font-family="Avenir-Book, Avenir" font-size="13" font-weight="normal" fill="#333333">
            <tspan x="27" y="376">Order ID - #D5698BT3448</tspan>
        </text>
        <text id="Order-ID---#D5698BT3-Copy" font-family="Avenir-Book, Avenir" font-size="13" font-weight="normal" fill="#333333">
            <tspan x="27" y="266">Order ID - #D5698BT3448</tspan>
        </text>
        <text id="Paid-Copy" font-family="Avenir-Roman, Avenir" font-size="12" font-weight="normal" fill="#6AC259">
            <tspan x="23.444" y="203">Paid</tspan>
        </text>
        <text id="Paid-Copy-2" font-family="Avenir-Roman, Avenir" font-size="12" font-weight="normal" fill="#6AC259">
            <tspan x="23.444" y="423">Paid</tspan>
        </text>
        <text id="Cancelled" font-family="Avenir-Roman, Avenir" font-size="12" font-weight="normal" fill="#C25959">
            <tspan x="23.42" y="313">Cancelled</tspan>
        </text>
        <path d="M14,216.5 L348,216.5" id="Line-2" stroke-opacity="0.104867788" stroke="#FFFFFF" stroke-linecap="square"></path>
        <path d="M14,327.5 L348,327.5" id="Line-2" stroke-opacity="0.104867788" stroke="#FFFFFF" stroke-linecap="square"></path>
        <path d="M14,437.5 L348,437.5" id="Line-2" stroke-opacity="0.104867788" stroke="#FFFFFF" stroke-linecap="square"></path>
        <g id="Header" transform="translate(0.000000, -3.000000)">
            <g id="status-bar">
                <g id="Rectangle">
                    <use fill="black" fill-opacity="1" filter="url(#filter-3)" xlink:href="#path-2"></use>
                    <use fill="#333333" fill-rule="evenodd" xlink:href="#path-2"></use>
                </g>
                <g id="Material/Android/Status-bar-content-light" transform="translate(271.000000, 1.598909)">
                    <g id="time" opacity="0.9" transform="translate(54.000000, 2.000000)" fill="#FFFFFF" font-family="Roboto-Medium, Roboto" font-size="11" font-weight="400">
                        <text id="12:30">
                            <tspan x="0.0756835938" y="10">12:30</tspan>
                        </text>
                    </g>
                    <g id="battery" transform="translate(38.000000, 3.000000)">
                        <polygon id="bounds" points="0 0 11 0 11 11 0 11"></polygon>
                        <polygon id="Shape" fill="#FFFFFF" points="6.1875 1.2890625 6.1875 0.6875 4.125 0.6875 4.125 1.2890625 2.0625 1.2890625 2.0625 10.3125 8.25 10.3125 8.25 1.2890625"></polygon>
                    </g>
                    <g id="cellular" transform="translate(23.000000, 3.000000)">
                        <polygon id="bounds" points="0 0 11 0 11 11 0 11"></polygon>
                        <polygon id="Shape" fill="#FFFFFF" points="0 10.3125 9.625 10.3125 9.625 0.6875"></polygon>
                    </g>
                    <g id="wifi" transform="translate(5.000000, 3.000000)">
                        <polygon id="bounds" points="1.4 0 12.6 0 12.6 11 1.4 11"></polygon>
                        <path d="M0.68416046,2.76095272 C2.44175336,1.45926262 4.62911059,0.6875 7,0.6875 C9.37088941,0.6875 11.5582466,1.45926262 13.3158395,2.76095272 L7,10.3125 L0.68416046,2.76095272 Z" id="Shape" fill="#FFFFFF"></path>
                    </g>
                </g>
            </g>
        </g>
        <rect id="Rectangle" stroke="#FFFFFF" x="14.5" y="53.5" width="333" height="36" rx="4"></rect>
        <path d="M18,53 L181,53 L181,90 L18,90 C15.790861,90 14,88.209139 14,86 L14,57 C14,54.790861 15.790861,53 18,53 Z" id="Rectangle" fill="url(#linearGradient-4)"></path>
        <g id="Upcoming" fill="#000000" fill-opacity="1">
            <use filter="url(#filter-6)" xlink:href="#text-5"></use>
            <use xlink:href="#text-5"></use>
        </g>
        <g id="Redeem/Cancel" fill="#FFFFFF" fill-opacity="1">
            <use filter="url(#filter-8)" xlink:href="#text-7"></use>
            <use xlink:href="#text-7"></use>
        </g>
        <g id="left-arrow" transform="translate(14.000000, 23.000000)" fill="#FFFFFF" fill-rule="nonzero">
            <path d="M21.9508819,8.05990909 L0.924020979,8.05990909 C0.413714064,8.05990909 0,8.48081818 0,9 C0,9.51922727 0.413714064,9.94009091 0.924020979,9.94009091 L21.9508819,9.94009091 C22.4612335,9.94009091 22.8749029,9.51922727 22.8749029,9 C22.8749029,8.48081818 22.4612335,8.05990909 21.9508819,8.05990909 Z" id="Path"></path>
            <path d="M2.23083916,9 L9.46248057,1.64254545 C9.8233411,1.27540909 9.8233411,0.680181818 9.46248057,0.313045455 C9.10162005,-0.0540454545 8.5165676,-0.0540454545 8.15570707,0.313045455 L0.270656566,8.33522727 C-0.0902039627,8.70236364 -0.0902039627,9.29759091 0.270656566,9.66472727 L8.15570707,17.6869091 C8.336115,17.8705 8.57263792,17.9622727 8.80911616,17.9622727 C9.04559441,17.9622727 9.28211733,17.8705 9.46252525,17.6869091 C9.82338578,17.3197727 9.82338578,16.7245455 9.46252525,16.3574091 L2.23083916,9 Z" id="Path"></path>
        </g>
        <text font-family="Avenir-Medium, Avenir" font-size="15" font-weight="400" fill="#FFFFFF">
            <tspan x="47" y="36">Orders</tspan>
        </text>
    </g>
</svg>