<?xml version="1.0" encoding="UTF-8"?>
<svg width="360px" height="585px" viewBox="0 0 360 585" version="1.1" xmlns="http://www.w3.org/2000/svg" xmlns:xlink="http://www.w3.org/1999/xlink">
    <!-- Generator: Sketch 55.2 (78181) - https://sketchapp.com -->
    <title>rate</title>
    <desc>Created with Sketch.</desc>
    <defs>
        <linearGradient x1="50%" y1="0%" x2="50%" y2="74.0366343%" id="linearGradient-1">
            <stop stop-color="#000000" stop-opacity="0" offset="0%"></stop>
            <stop stop-color="#292A2C" offset="100%"></stop>
        </linearGradient>
        <rect id="path-2" x="0" y="0.998315043" width="360" height="61"></rect>
        <filter x="-1.9%" y="-8.2%" width="103.9%" height="123.0%" filterUnits="objectBoundingBox" id="filter-3">
            <feOffset dx="0" dy="2" in="SourceAlpha" result="shadowOffsetOuter1"></feOffset>
            <feGaussianBlur stdDeviation="2" in="shadowOffsetOuter1" result="shadowBlurOuter1"></feGaussianBlur>
            <feColorMatrix values="0 0 0 0 0   0 0 0 0 0   0 0 0 0 0  0 0 0 0.5 0" type="matrix" in="shadowBlurOuter1"></feColorMatrix>
        </filter>
    </defs>
    <g id="rate" stroke="none" stroke-width="1" fill="none" fill-rule="evenodd">
        <rect fill="#000000" x="0" y="0" width="360" height="585"></rect>
        <g id="Menu-2" transform="translate(0.000000, -2.000000)">
            <rect id="Rectangle-Copy" fill="url(#linearGradient-1)" x="0" y="5" width="360" height="586"></rect>
            <g id="Header">
                <g id="status-bar">
                    <g id="Rectangle">
                        <use fill="black" fill-opacity="1" filter="url(#filter-3)" xlink:href="#path-2"></use>
                        <use fill="#333333" fill-rule="evenodd" xlink:href="#path-2"></use>
                    </g>
                    <g id="Material/Android/Status-bar-content-light" transform="translate(271.000000, 2.598909)">
                        <g id="time" opacity="0.9" transform="translate(54.000000, 2.000000)" fill="#FFFFFF" font-family="Roboto-Medium, Roboto" font-size="11" font-weight="400">
                            <text id="12:30">
                                <tspan x="0.0756835938" y="10">12:30</tspan>
                            </text>
                        </g>
                        <g id="battery" transform="translate(38.000000, 3.000000)">
                            <polygon id="bounds" points="0 0 11 0 11 11 0 11"></polygon>
                            <polygon id="Shape" fill="#FFFFFF" points="6.1875 1.2890625 6.1875 0.6875 4.125 0.6875 4.125 1.2890625 2.0625 1.2890625 2.0625 10.3125 8.25 10.3125 8.25 1.2890625"></polygon>
                        </g>
                        <g id="cellular" transform="translate(23.000000, 3.000000)">
                            <polygon id="bounds" points="0 0 11 0 11 11 0 11"></polygon>
                            <polygon id="Shape" fill="#FFFFFF" points="0 10.3125 9.625 10.3125 9.625 0.6875"></polygon>
                        </g>
                        <g id="wifi" transform="translate(5.000000, 3.000000)">
                            <polygon id="bounds" points="1.4 0 12.6 0 12.6 11 1.4 11"></polygon>
                            <path d="M0.68416046,2.76095272 C2.44175336,1.45926262 4.62911059,0.6875 7,0.6875 C9.37088941,0.6875 11.5582466,1.45926262 13.3158395,2.76095272 L7,10.3125 L0.68416046,2.76095272 Z" id="Shape" fill="#FFFFFF"></path>
                        </g>
                    </g>
                </g>
            </g>
            <g id="Menu" transform="translate(0.000000, 77.000000)">
                <path d="M0,38 L360,38" id="Line-4" stroke-opacity="0.267045455" stroke="#979797" stroke-linecap="square"></path>
                <g id="Material/Icons-black/chevron-right" transform="translate(324.000000, 0.000000)" fill="#FFFFFF">
                    <polygon id="Shape" points="8.59997559 7.4 9.99997559 6 15.9999756 12 9.99997559 18 8.59997559 16.6 13.1999756 12"></polygon>
                </g>
                <text id="Wishlist" font-family="Avenir-Medium, Avenir" font-size="14" font-weight="400" line-spacing="19" fill="#FFFFFF">
                    <tspan x="50" y="17">Wishlist</tspan>
                </text>
            </g>
            <g id="Menu" transform="translate(0.000000, 127.000000)">
                <path d="M0,38 L360,38" id="Line-4" stroke-opacity="0.267045455" stroke="#979797" stroke-linecap="square"></path>
                <g id="Material/Icons-black/chevron-right" transform="translate(324.000000, 0.000000)" fill="#FFFFFF">
                    <polygon id="Shape" points="8.59997559 7.4 9.99997559 6 15.9999756 12 9.99997559 18 8.59997559 16.6 13.1999756 12"></polygon>
                </g>
                <text id="Share" font-family="Avenir-Medium, Avenir" font-size="14" font-weight="400" line-spacing="19" fill="#FFFFFF">
                    <tspan x="50" y="17">Share</tspan>
                </text>
            </g>
            <g id="Menu" transform="translate(0.000000, 178.000000)">
                <path d="M0,38 L360,38" id="Line-4" stroke-opacity="0.267045455" stroke="#979797" stroke-linecap="square"></path>
                <g id="Material/Icons-black/chevron-right" transform="translate(324.000000, 0.000000)" fill="#FFFFFF">
                    <polygon id="Shape" points="8.59997559 7.4 9.99997559 6 15.9999756 12 9.99997559 18 8.59997559 16.6 13.1999756 12"></polygon>
                </g>
                <text id="Rate-us" font-family="Avenir-Medium, Avenir" font-size="14" font-weight="400" line-spacing="19" fill="#FFFFFF">
                    <tspan x="50" y="18">Rate us</tspan>
                </text>
            </g>
            <g id="Menu" transform="translate(0.000000, 229.000000)">
                <path d="M0,38 L360,38" id="Line-4" stroke-opacity="0.267045455" stroke="#979797" stroke-linecap="square"></path>
                <g id="Material/Icons-black/chevron-right" transform="translate(324.000000, 0.000000)" fill="#FFFFFF">
                    <polygon id="Shape" points="8.59997559 7.4 9.99997559 6 15.9999756 12 9.99997559 18 8.59997559 16.6 13.1999756 12"></polygon>
                </g>
                <text id="Notifications" font-family="Avenir-Medium, Avenir" font-size="14" font-weight="400" line-spacing="19" fill="#FFFFFF">
                    <tspan x="50" y="18">Notifications</tspan>
                </text>
            </g>
            <g id="Menu" transform="translate(0.000000, 330.000000)">
                <path d="M0,38 L360,38" id="Line-4" stroke-opacity="0.267045455" stroke="#979797" stroke-linecap="square"></path>
                <g id="Material/Icons-black/chevron-right" transform="translate(324.000000, 0.000000)" fill="#FFFFFF">
                    <polygon id="Shape" points="8.59997559 7.4 9.99997559 6 15.9999756 12 9.99997559 18 8.59997559 16.6 13.1999756 12"></polygon>
                </g>
                <text id="About-us" font-family="Avenir-Medium, Avenir" font-size="14" font-weight="400" line-spacing="19" fill="#FFFFFF">
                    <tspan x="50" y="18">About us</tspan>
                </text>
            </g>
            <g id="Menu" transform="translate(0.000000, 380.000000)">
                <path d="M0,38 L360,38" id="Line-4" stroke-opacity="0.267045455" stroke="#979797" stroke-linecap="square"></path>
                <g id="Material/Icons-black/chevron-right" transform="translate(324.000000, 0.000000)" fill="#FFFFFF">
                    <polygon id="Shape" points="8.59997559 7.4 9.99997559 6 15.9999756 12 9.99997559 18 8.59997559 16.6 13.1999756 12"></polygon>
                </g>
                <text id="Terms-of-Use" font-family="Avenir-Medium, Avenir" font-size="14" font-weight="400" line-spacing="19" fill="#FFFFFF">
                    <tspan x="50" y="18">Terms of Use</tspan>
                </text>
            </g>
            <g id="Menu" transform="translate(0.000000, 280.000000)">
                <path d="M0,38 L360,38" id="Line-4" stroke-opacity="0.267045455" stroke="#979797" stroke-linecap="square"></path>
                <g id="Material/Icons-black/chevron-right" transform="translate(324.000000, 0.000000)" fill="#FFFFFF">
                    <polygon id="Shape" points="8.59997559 7.4 9.99997559 6 15.9999756 12 9.99997559 18 8.59997559 16.6 13.1999756 12"></polygon>
                </g>
                <text id="Refer-to-Friends" font-family="Avenir-Medium, Avenir" font-size="14" font-weight="400" line-spacing="19" fill="#FFFFFF">
                    <tspan x="50" y="18">Refer to Friends</tspan>
                </text>
            </g>
        </g>
        <g id="heart" transform="translate(14.000000, 78.000000)" fill="#FFFFFF" fill-rule="nonzero">
            <path d="M11.2,20 C10.8811035,20 10.5736572,19.88406 10.3340576,19.673447 C9.42915041,18.8793606 8.55671386,18.1331252 7.78698729,17.4748739 L7.78305666,17.4714438 C5.52634276,15.5414537 3.57758791,13.8747299 2.22167969,12.2328748 C0.705981456,10.3973862 0,8.65708503 0,6.75590849 C0,4.90875724 0.631127919,3.20464445 1.77700197,1.95725997 C2.93654786,0.695125705 4.52761229,0 6.25761719,0 C7.55063479,0 8.73479005,0.410249374 9.77709959,1.21925701 C10.303125,1.62761978 10.7799317,2.12739684 11.2,2.71035572 C11.6202393,2.12739684 12.096875,1.62761978 12.6230713,1.21925701 C13.6653808,0.410249374 14.8495361,0 16.1425537,0 C17.8723877,0 19.463623,0.695125705 20.623169,1.95725997 C21.769043,3.20464445 22.4,4.90875724 22.4,6.75590849 C22.4,8.65708503 21.6941895,10.3973862 20.1784912,12.2327033 C18.822583,13.8747299 16.873999,15.5412822 14.617627,17.4711008 C13.8465332,18.1303811 12.9727295,18.877817 12.0657715,19.67379 C11.8263428,19.88406 11.5187256,20 11.2,20 L11.2,20 Z M6.25761719,1.31684563 C4.89846192,1.31684563 3.64987792,1.86121497 2.74155271,2.84979247 C1.81972656,3.85329127 1.31198729,5.24045554 1.31198729,6.75590849 C1.31198729,8.35488627 1.90415041,9.78492779 3.23186036,11.3926525 C4.51513672,12.946695 6.42390136,14.5791171 8.63395995,16.469317 L8.63806151,16.4727473 C9.41069334,17.1335712 10.2865479,17.8827222 11.1981201,18.6826399 C12.1151611,17.8811786 12.9923828,17.130827 13.7665527,16.468974 C15.9764404,14.5787741 17.8850342,12.946695 19.1683105,11.3926525 C20.4958496,9.78492779 21.0880127,8.35488627 21.0880127,6.75590849 C21.0880127,5.24045554 20.5802734,3.85329127 19.6584473,2.84979247 C18.750293,1.86121497 17.5015381,1.31684563 16.1425537,1.31684563 C15.1468994,1.31684563 14.2327636,1.63448013 13.4256104,2.26083081 C12.7062988,2.81926391 12.2052246,3.52519464 11.9114502,4.01914038 C11.760376,4.27314514 11.494458,4.42475904 11.2,4.42475904 C10.905542,4.42475904 10.639624,4.27314514 10.4885498,4.01914038 C10.1949463,3.52519464 9.69387208,2.81926391 8.97438964,2.26083081 C8.16723635,1.63448013 7.25310057,1.31684563 6.25761719,1.31684563 Z" id="Shape"></path>
        </g>
        <path d="M29,142.136546 C28.24,142.136546 27.56,142.437751 27.04,142.909639 L19.91,138.742972 C19.96,138.512048 20,138.281124 20,138.040161 C20,137.799197 19.96,137.568273 19.91,137.337349 L26.96,133.210843 C27.5,133.712851 28.21,134.024096 29,134.024096 C30.66,134.024096 32,132.678715 32,131.012048 C32,129.345382 30.66,128 29,128 C27.34,128 26,129.345382 26,131.012048 C26,131.253012 26.04,131.483936 26.09,131.714859 L19.04,135.841365 C18.5,135.339357 17.79,135.028112 17,135.028112 C15.34,135.028112 14,136.373494 14,138.040161 C14,139.706827 15.34,141.052209 17,141.052209 C17.79,141.052209 18.5,140.740964 19.04,140.238956 L26.16,144.415663 C26.11,144.626506 26.08,144.84739 26.08,145.068273 C26.08,146.684739 27.39,148 29,148 C30.61,148 31.92,146.684739 31.92,145.068273 C31.92,143.451807 30.61,142.136546 29,142.136546 L29,142.136546 Z" id="Shape" fill="#FFFFFF" fill-rule="nonzero"></path>
        <g id="005-star" transform="translate(14.000000, 177.000000)" fill="#FFFFFF" fill-rule="nonzero">
            <path d="M22.0119628,9.82835462 C22.4548479,9.39673309 22.6111868,8.76326768 22.420156,8.17440615 C22.2286746,7.58554463 21.729922,7.16518671 21.1171816,7.07597892 L15.6691988,6.28437242 C15.4371684,6.2505816 15.2366762,6.10505576 15.133051,5.89465152 L12.697408,0.958036609 C12.4239275,0.403416461 11.8688569,0.05875 11.2502594,0.05875 C10.6321125,0.05875 10.0770418,0.403416461 9.80356136,0.958036609 L7.36746782,5.89465152 C7.26384261,6.10505576 7.06289981,6.2505816 6.83086945,6.28437242 L1.38288665,7.07642947 C0.770596816,7.16518671 0.271844173,7.58554463 0.0803628061,8.17440615 C-0.110668017,8.76326768 0.0456708878,9.39673309 0.488556026,9.82835462 L4.43036892,13.6705972 C4.59842198,13.8345954 4.67546507,14.0706806 4.63581717,14.3013594 L3.70544299,19.7272655 C3.60091669,20.336852 3.84646339,20.9410321 4.34701821,21.3050719 C4.84712249,21.6695624 5.49815913,21.7168695 6.04647166,21.4280706 L10.9186587,18.8662751 C11.1263597,18.7572434 11.3741591,18.7572434 11.5818601,18.8662751 L16.4544977,21.4280706 C16.6923851,21.5533219 16.9500965,21.6150465 17.2064563,21.6150465 C17.5394086,21.6150465 17.8710093,21.5109707 18.1539511,21.3050719 C18.654506,20.9410321 18.9000527,20.336852 18.7955264,19.7272655 L17.8647016,14.3018099 C17.8250537,14.0706806 17.9020968,13.8350459 18.0701499,13.6710478 L22.0119628,9.82835462 Z M16.9771292,14.4540939 L17.9075034,19.8795495 C17.95436,20.1525794 17.848482,20.4134446 17.6241109,20.5765417 C17.3992893,20.7391882 17.1195012,20.7590121 16.8739545,20.6310575 L12.0013169,18.0688116 C11.7665833,17.945813 11.5079708,17.8836378 11.2502594,17.8836378 C10.992548,17.8836378 10.7343861,17.945813 10.4992019,18.0692621 L5.62746537,20.6310575 C5.38101759,20.7590121 5.10122952,20.7391882 4.87685842,20.5765417 C4.65248731,20.4134446 4.54705992,20.1530299 4.59346599,19.8795495 L5.52384016,14.4540939 C5.6134985,13.9305613 5.44003891,13.3962157 5.05977944,13.0258682 L1.117516,9.18317505 C0.918825922,8.98944096 0.851244263,8.71641106 0.937298242,8.45284259 C1.02290168,8.18882357 1.23781135,8.00770473 1.51219289,7.96760628 L6.95972515,7.17599978 C7.48551045,7.09985778 7.94010975,6.77005928 8.17484337,6.29338331 L10.6109369,1.3567684 C10.733485,1.10806789 10.9727241,0.959838786 11.2498089,0.959838786 C11.5273442,0.959838786 11.7661327,1.10806789 11.8891314,1.3567684 L14.3252249,6.29338331 C14.5599585,6.77005928 15.0141073,7.09985778 15.5398926,7.17599978 L20.9878754,7.96760628 C21.2622569,8.00770473 21.4771666,8.18882357 21.56277,8.45284259 C21.6483735,8.71641106 21.5812423,8.98944096 21.3825523,9.18317505 L17.4407394,13.0254176 C17.0604799,13.3962157 16.8870203,13.9301108 16.9771292,14.4540939 Z" id="Shape"></path>
        </g>
        <g id="004-notification" transform="translate(14.000000, 225.000000)" fill="#FFFFFF" fill-rule="nonzero">
            <path d="M22.4196823,22.7312613 L20.4869967,19.5225562 C19.5960345,18.0415467 19.124662,16.3463817 19.124662,14.6186861 L19.124662,11.8079685 C19.124662,7.48150343 15.5911869,3.96 11.2500137,3.96 C6.90884046,3.96 3.37536539,7.48150343 3.37536539,11.8079685 L3.37536539,14.6186861 C3.37536539,16.3463817 2.90399282,18.0415467 2.01303062,19.5225562 L0.0803450529,22.7312613 C-0.0242755078,22.9038995 -0.0265429897,23.1203147 0.0724879644,23.2952127 C0.172626293,23.4712143 0.360458167,23.58 0.562949575,23.58 L21.937025,23.58 C22.1395164,23.58 22.3274011,23.4712669 22.4274866,23.2952127 C22.5265176,23.1202622 22.5243029,22.9038995 22.4196823,22.7312613 Z M1.55631758,22.4588241 L2.97713229,20.0988051 C3.97382242,18.4440012 4.50030008,16.5492907 4.50030008,14.6186861 L4.50030008,11.8079685 C4.50030008,8.09811338 7.52754663,5.08112334 11.2500137,5.08112334 C14.9724807,5.08112334 17.9997273,8.09811338 17.9997273,11.8079685 L17.9997273,14.6186861 C17.9997273,16.5492907 18.5262049,18.4440012 19.5217877,20.0988051 L20.9437098,22.4588241 L1.55631758,22.4588241 Z" id="Shape"></path>
            <path d="M11.25,0 C10.0091171,0 9,1.00464 9,2.2400175 L9,4.480035 C9,4.7891025 9.25201561,5.04 9.56251318,5.04 C9.87301076,5.04 10.1250264,4.7891025 10.1250264,4.4799825 L10.1250264,2.2400175 C10.1250264,1.6217775 10.6290049,1.120035 11.25,1.120035 C11.8709951,1.120035 12.3749736,1.6217775 12.3749736,2.2400175 L12.3749736,4.480035 C12.3749736,4.7891025 12.6269892,5.04 12.9374868,5.04 C13.2479844,5.04 13.5,4.7891025 13.5,4.4799825 L13.5,2.2400175 C13.5,1.00464 12.4908829,0 11.25,0 Z" id="Path"></path>
            <path d="M13.6629277,22.5972374 C13.5056356,22.3294645 13.1653764,22.2417013 12.8987956,22.3958144 C12.6321625,22.5533558 12.5429536,22.8987653 12.6990953,23.1665382 C12.844099,23.4152183 12.9233202,23.7133708 12.9233202,24.0070401 C12.9233202,24.9375732 12.1725746,25.6947949 11.25,25.6947949 C10.3274254,25.6947949 9.57667979,24.9375732 9.57667979,24.0070401 C9.57667979,23.7133708 9.65590104,23.4152183 9.80090469,23.1665382 C9.95594827,22.897605 9.86673939,22.553303 9.60120439,22.3958144 C9.33237504,22.2416485 8.99321394,22.3294118 8.83707225,22.5972374 C8.59051898,23.0225516 8.46,23.5097326 8.46,24.0070928 C8.46,25.558667 9.7105454,26.82 11.2489019,26.82 C12.7872584,26.82 14.0377515,25.558667 14.04,24.0070928 C14.04,23.5097326 13.909481,23.0225516 13.6629277,22.5972374 Z" id="Path"></path>
        </g>
        <g id="009-add-contact" transform="translate(14.000000, 282.000000)" fill="#FFFFFF" fill-rule="nonzero">
            <path d="M5.67567568,6.08108108 C7.35220541,6.08108108 8.71621622,4.71711892 8.71621622,3.04054054 C8.71621622,1.36396216 7.35220541,0 5.67567568,0 C3.99914595,0 2.63513514,1.36396216 2.63513514,3.04054054 C2.63513514,4.71711892 3.99914595,6.08108108 5.67567568,6.08108108 Z M5.67567568,0.72972973 C6.94983243,0.72972973 7.98648649,1.76638378 7.98648649,3.04054054 C7.98648649,4.3146973 6.94983243,5.35135135 5.67567568,5.35135135 C4.40151892,5.35135135 3.36486486,4.3146973 3.36486486,3.04054054 C3.36486486,1.76638378 4.40151892,0.72972973 5.67567568,0.72972973 Z" id="Shape"></path>
            <path d="M13.5810811,6.08108108 C15.2576108,6.08108108 16.6216216,4.71711892 16.6216216,3.04054054 C16.6216216,1.36396216 15.2576108,0 13.5810811,0 C11.9045514,0 10.5405405,1.36396216 10.5405405,3.04054054 C10.5405405,4.71711892 11.9045514,6.08108108 13.5810811,6.08108108 Z M13.5810811,0.72972973 C14.8552378,0.72972973 15.8918919,1.76638378 15.8918919,3.04054054 C15.8918919,4.3146973 14.8552378,5.35135135 13.5810811,5.35135135 C12.3069243,5.35135135 11.2702703,4.3146973 11.2702703,3.04054054 C11.2702703,1.76638378 12.3069243,0.72972973 13.5810811,0.72972973 Z" id="Shape"></path>
            <path d="M17.5939975,10.1947577 C17.6654193,10.2886387 17.7726487,10.3378869 17.8810378,10.3378378 C17.9584034,10.3378378 18.0363972,10.3127472 18.1024068,10.2609948 C18.2608105,10.1366222 18.2899495,9.90535674 18.1675949,9.74440387 C17.0827854,8.31802162 15.4442877,7.5 13.6722727,7.5 C12.5345008,7.5 11.436644,7.84076051 10.4974326,8.48550492 C10.3315387,8.59937 10.2879511,8.82827857 10.3999645,8.99679299 C10.5120745,9.16540561 10.7373577,9.20969465 10.9031549,9.09582958 C11.722138,8.53367294 12.679664,8.23651407 13.6722727,8.23651407 C15.2180863,8.23651407 16.6475375,8.9502453 17.5939975,10.1947577 Z" id="Path"></path>
            <path d="M5.67567568,7.5 C2.54608396,7.5 0,10.0642703 0,13.2162162 C0,13.4177676 0.162203565,13.5810811 0.362277171,13.5810811 C0.562350776,13.5810811 0.724554342,13.4177676 0.724554342,13.2162162 C0.724554342,10.4666432 2.94560322,8.22972973 5.67567568,8.22972973 C8.40574813,8.22972973 10.626797,10.4666432 10.626797,13.2162162 C10.626797,13.4177676 10.7890006,13.5810811 10.9890742,13.5810811 C11.1891478,13.5810811 11.3513514,13.4177676 11.3513514,13.2162162 C11.3513514,10.0642703 8.8052674,7.5 5.67567568,7.5 Z" id="Path"></path>
            <path d="M18.9527027,10.7432432 C16.9966985,10.7432432 15.4054054,12.3345363 15.4054054,14.2905405 C15.4054054,16.2465447 16.9966985,17.8378378 18.9527027,17.8378378 C20.9087069,17.8378378 22.5,16.2465447 22.5,14.2905405 C22.5,12.3345363 20.9087069,10.7432432 18.9527027,10.7432432 Z M18.9527027,17.1039143 C17.401384,17.1039143 16.139329,15.8418593 16.139329,14.2905405 C16.139329,12.7392218 17.401384,11.4771668 18.9527027,11.4771668 C20.5040214,11.4771668 21.7660764,12.7392218 21.7660764,14.2905405 C21.7660764,15.8418593 20.5040214,17.1039143 18.9527027,17.1039143 Z" id="Shape"></path>
            <path d="M20.3014553,14.0176715 L19.4282744,14.0176715 L19.4282744,13.1444906 C19.4282744,12.9377713 19.2607235,12.7702703 19.0540541,12.7702703 C18.8473846,12.7702703 18.6798337,12.9377713 18.6798337,13.1444906 L18.6798337,14.0176715 L17.8066528,14.0176715 C17.5999834,14.0176715 17.4324324,14.1851726 17.4324324,14.3918919 C17.4324324,14.5986112 17.5999834,14.7661123 17.8066528,14.7661123 L18.6798337,14.7661123 L18.6798337,15.6392931 C18.6798337,15.8460125 18.8473846,16.0135135 19.0540541,16.0135135 C19.2607235,16.0135135 19.4282744,15.8460125 19.4282744,15.6392931 L19.4282744,14.7661123 L20.3014553,14.7661123 C20.5081247,14.7661123 20.6756757,14.5986112 20.6756757,14.3918919 C20.6756757,14.1851726 20.5081247,14.0176715 20.3014553,14.0176715 Z" id="Path"></path>
        </g>
        <g id="left-arrow" transform="translate(14.000000, 26.000000)" fill="#FFFFFF" fill-rule="nonzero">
            <path d="M21.9508819,8.05990909 L0.924020979,8.05990909 C0.413714064,8.05990909 0,8.48081818 0,9 C0,9.51922727 0.413714064,9.94009091 0.924020979,9.94009091 L21.9508819,9.94009091 C22.4612335,9.94009091 22.8749029,9.51922727 22.8749029,9 C22.8749029,8.48081818 22.4612335,8.05990909 21.9508819,8.05990909 Z" id="Path"></path>
            <path d="M2.23083916,9 L9.46248057,1.64254545 C9.8233411,1.27540909 9.8233411,0.680181818 9.46248057,0.313045455 C9.10162005,-0.0540454545 8.5165676,-0.0540454545 8.15570707,0.313045455 L0.270656566,8.33522727 C-0.0902039627,8.70236364 -0.0902039627,9.29759091 0.270656566,9.66472727 L8.15570707,17.6869091 C8.336115,17.8705 8.57263792,17.9622727 8.80911616,17.9622727 C9.04559441,17.9622727 9.28211733,17.8705 9.46252525,17.6869091 C9.82338578,17.3197727 9.82338578,16.7245455 9.46252525,16.3574091 L2.23083916,9 Z" id="Path"></path>
        </g>
        <text id="More-on-Xclusify" font-family="Avenir-Medium, Avenir" font-size="15" font-weight="400" fill="#FFFFFF">
            <tspan x="47" y="39">More on Xclusify</tspan>
        </text>
        <g id="001-information-button" transform="translate(14.000000, 329.000000)" fill="#FFFFFF" fill-rule="nonzero">
            <path d="M11.07375,0 C4.9584375,0 0,4.9584375 0,11.07375 C0,17.1890625 4.9584375,22.1484375 11.07375,22.1484375 C17.1890625,22.1484375 22.1484375,17.1890625 22.1484375,11.07375 C22.1484375,4.9584375 17.1890625,0 11.07375,0 Z M13.3790625,17.1628125 C12.8090625,17.3878125 12.3553125,17.5584375 12.015,17.6765625 C11.675625,17.7946875 11.2809375,17.85375 10.831875,17.85375 C10.141875,17.85375 9.6046875,17.685 9.2221875,17.3484375 C8.8396875,17.011875 8.649375,16.5853125 8.649375,16.066875 C8.649375,15.8653125 8.6634375,15.6590625 8.6915625,15.4490625 C8.720625,15.2390625 8.7665625,15.0028125 8.829375,14.7375 L9.5428125,12.2175 C9.605625,11.975625 9.66,11.7459375 9.703125,11.5321875 C9.74625,11.3165625 9.766875,11.11875 9.766875,10.93875 C9.766875,10.618125 9.7003125,10.393125 9.568125,10.2665625 C9.4340625,10.14 9.181875,10.078125 8.8059375,10.078125 C8.6221875,10.078125 8.4328125,10.1053125 8.23875,10.1625 C8.0465625,10.2215625 7.8796875,10.275 7.7428125,10.3275 L7.93125,9.55125 C8.398125,9.3609375 8.8453125,9.1978125 9.271875,9.0628125 C9.6984375,8.9259375 10.1015625,8.8584375 10.48125,8.8584375 C11.1665625,8.8584375 11.6953125,9.0253125 12.0675,9.3553125 C12.4378125,9.68625 12.624375,10.1165625 12.624375,10.6453125 C12.624375,10.755 12.61125,10.948125 12.5859375,11.22375 C12.560625,11.5003125 12.5128125,11.7525 12.4434375,11.9840625 L11.73375,14.4965625 C11.675625,14.698125 11.6240625,14.92875 11.5771875,15.1865625 C11.53125,15.444375 11.50875,15.64125 11.50875,15.7734375 C11.50875,16.1071875 11.5828125,16.335 11.7328125,16.4559375 C11.8809375,16.576875 12.140625,16.6378125 12.508125,16.6378125 C12.6815625,16.6378125 12.875625,16.606875 13.095,16.546875 C13.3125,16.486875 13.47,16.4334375 13.569375,16.3875 L13.3790625,17.1628125 Z M13.2534375,6.9646875 C12.9225,7.2721875 12.5240625,7.4259375 12.058125,7.4259375 C11.593125,7.4259375 11.191875,7.2721875 10.858125,6.9646875 C10.52625,6.6571875 10.3584375,6.283125 10.3584375,5.84625 C10.3584375,5.4103125 10.5271875,5.0353125 10.858125,4.725 C11.191875,4.41375 11.593125,4.2590625 12.058125,4.2590625 C12.5240625,4.2590625 12.9234375,4.41375 13.2534375,4.725 C13.584375,5.0353125 13.7503125,5.4103125 13.7503125,5.84625 C13.7503125,6.2840625 13.584375,6.6571875 13.2534375,6.9646875 Z" id="Shape"></path>
        </g>
        <g id="002-verification-of-delivery-list-clipboard-symbol" transform="translate(14.000000, 377.000000)" fill="#FFFFFF" fill-rule="nonzero">
            <path d="M11.4592238,1.96735167 L10.851328,1.96735167 C10.5265209,1.96735167 10.2632078,1.70483709 10.2632078,1.38111562 L10.2632078,1.3614034 C10.2632078,0.609503676 9.65170004,0 8.89738372,0 L8.86582407,0 C8.11150776,0 7.50004515,0.609503676 7.50004515,1.3614034 L7.50004515,1.38111562 C7.50004515,1.7048821 7.23668685,1.96739668 6.91192494,1.96739668 L6.30402916,1.96739668 C5.65653708,1.96739668 5.13167162,2.49058063 5.13167162,3.13599835 L5.13167162,3.15962601 C5.13167162,3.80504374 5.65653708,4.32822769 6.30402916,4.32822769 L11.4593592,4.32822769 C12.1068062,4.32822769 12.6316716,3.80499873 12.6316716,3.15962601 L12.6316716,3.13595335 C12.6316716,2.49058063 12.106761,1.96735167 11.4592238,1.96735167 Z M8.88158132,1.96735167 C8.55456193,1.96735167 8.28948794,1.7030819 8.28948794,1.37715517 C8.28948794,1.05118344 8.55460708,0.786913666 8.88158132,0.786913666 C9.20860072,0.786913666 9.47367471,1.05118344 9.47367471,1.37715517 C9.47367471,1.7031269 9.20860072,1.96735167 8.88158132,1.96735167 Z M11.5176927,24.7887931 L1.57893073,24.7887931 C0.706909111,24.7887931 0,24.0841487 0,23.2149208 L0,4.32818268 C0,3.45895474 0.706909111,2.75431034 1.18418676,2.75431034 L4.38322477,2.75431034 C4.35654129,2.88500507 4.34213853,3.02047033 4.34213853,3.15971602 C4.34213853,4.23794752 5.2221968,5.11518636 6.30407431,5.11518636 L11.4591786,5.11518636 C12.5411013,5.11518636 13.4210693,4.23794752 13.4210693,3.13590834 C13.4210693,3.00525862 13.4070277,2.87789427 13.3824663,2.75431034 L15.7894879,2.75431034 C17.0563438,2.75431034 17.7632078,3.45895474 17.7632078,4.32818268 L17.7632078,16.152275 C17.6320027,16.1441291 17.5017458,16.1323827 17.368509,16.1323827 C16.8224683,16.1323827 16.2952551,16.2090714 15.7894879,16.3395861 L15.7894879,7.08249303 L1.97367471,7.08249303 L1.97367471,22.8214414 L11.0726068,22.8214414 C11.1158602,23.5130344 11.2674729,24.1750139 11.5176927,24.7887931 Z M17.3684638,17.3128207 C14.534371,17.3128207 12.2369277,19.6029938 12.2369277,22.4279621 C12.2369277,25.2529304 14.5343258,27.5431034 17.3684638,27.5431034 C20.2026018,27.5431034 22.5,25.2529304 22.5,22.4279621 C22.5,19.6029938 20.2025567,17.3128207 17.3684638,17.3128207 Z M20.7215978,21.3770037 L17.5636912,24.9182727 C17.4081504,25.0927574 17.1914769,25.1822274 16.9733135,25.1822274 C16.8000289,25.1822274 16.6257961,25.1257461 16.4804592,25.009723 L14.5067393,23.4358507 C14.1663556,23.1645601 14.1110472,22.6692343 14.3836161,22.329941 C14.6557334,21.9902878 15.1528318,21.9352916 15.4932155,22.2070322 L16.881479,23.3140669 L19.5415197,20.3311308 C19.8308391,20.0064192 20.3300595,19.9768509 20.6559953,20.2658285 C20.9820214,20.554761 21.0112784,21.0519771 20.7215978,21.3770037 Z M13.8158132,13.7715517 L7.50004515,13.7715517 C7.28201717,13.7715517 7.10530118,13.5953569 7.10530118,13.3780724 L7.10530118,12.9845931 C7.10530118,12.7672636 7.28201717,12.5911137 7.50004515,12.5911137 L13.8158132,12.5911137 C14.0337961,12.5911137 14.2106024,12.7673086 14.2106024,12.9845931 L14.2106024,13.3780724 C14.2105121,13.5953569 14.0337961,13.7715517 13.8158132,13.7715517 Z M13.8158132,10.2302827 L7.50004515,10.2302827 C7.28201717,10.2302827 7.10530118,10.0540879 7.10530118,9.83680337 L7.10530118,9.44332404 C7.10530118,9.22599455 7.28201717,9.0498447 7.50004515,9.0498447 L13.8158132,9.0498447 C14.0337961,9.0498447 14.2106024,9.22603955 14.2106024,9.44332404 L14.2106024,9.83680337 C14.2105121,10.0541329 14.0337961,10.2302827 13.8158132,10.2302827 Z M11.8420934,16.9193414 L7.50004515,16.9193414 C7.28201717,16.9193414 7.10530118,16.7431466 7.10530118,16.5258621 L7.10530118,16.1323827 C7.10530118,15.9150532 7.28201717,15.7389034 7.50004515,15.7389034 L11.8420934,15.7389034 C12.0601665,15.7389034 12.2368825,15.9150532 12.2368825,16.1323827 L12.2368825,16.5258621 C12.2367922,16.7431466 12.0601665,16.9193414 11.8420934,16.9193414 Z M11.0526506,20.4606104 L7.5,20.4606104 C7.28197202,20.4606104 7.10525603,20.2844156 7.10525603,20.0671311 L7.10525603,19.6736517 C7.10525603,19.4563223 7.28197202,19.2801724 7.5,19.2801724 L11.0526506,19.2801724 C11.2706786,19.2801724 11.4473946,19.4563223 11.4473946,19.6736517 L11.4473946,20.0671311 C11.4473946,20.2844156 11.2706786,20.4606104 11.0526506,20.4606104 Z M6.34949493,8.77513375 L4.8957192,10.4053974 C4.82411175,10.4857315 4.72437603,10.5269561 4.62391791,10.5269561 C4.54413836,10.5269561 4.46395247,10.5009432 4.39704059,10.4475222 L3.48840254,9.72298555 C3.33168788,9.59809648 3.30626859,9.37010079 3.4316945,9.21388818 C3.55693981,9.05749556 3.78584887,9.03220271 3.94251839,9.15727181 L4.58161263,9.66686422 L5.80620839,8.29362449 C5.93940005,8.14416265 6.16921211,8.13052612 6.31924462,8.26356111 C6.46941257,8.3965961 6.48286719,8.62549189 6.34949493,8.77513375 Z M6.34949493,12.2758982 L4.8957192,13.9061169 C4.82411175,13.9864509 4.72437603,14.0276306 4.62391791,14.0276306 C4.54413836,14.0276306 4.46395247,14.0016627 4.39704059,13.9481966 L3.48840254,13.22366 C3.33168788,13.0987709 3.30626859,12.8707752 3.4316945,12.7145626 C3.55693981,12.55817 3.78584887,12.5328772 3.94251839,12.6579462 L4.58161263,13.1675837 L5.80620839,11.7943439 C5.93940005,11.6448821 6.16921211,11.6312456 6.31924462,11.7643256 C6.46941257,11.8973155 6.48286719,12.1262563 6.34949493,12.2758982 Z M6.34949493,15.6237804 L4.8957192,17.2540441 C4.82411175,17.3343332 4.72437603,17.3755578 4.62391791,17.3755578 C4.54413836,17.3755578 4.46395247,17.3495899 4.39704059,17.2961239 L3.48840254,16.5715422 C3.33168788,16.4466981 3.30626859,16.2186575 3.4316945,16.0624449 C3.55693981,15.9060522 3.78584887,15.8807594 3.94251839,16.0058285 L4.58161263,16.5154209 L5.80620839,15.1421812 C5.93940005,14.9927193 6.16921211,14.9790828 6.31924462,15.1121178 C6.46941257,15.2452428 6.48286719,15.4741386 6.34949493,15.6237804 Z M6.34949493,18.9952903 L4.8957192,20.625554 C4.82411175,20.7058881 4.72437603,20.7470677 4.62391791,20.7470677 C4.54413836,20.7470677 4.46395247,20.7210998 4.39704059,20.6676337 L3.48840254,19.9430521 C3.33168788,19.818208 3.30626859,19.5901673 3.4316945,19.4339547 C3.55693981,19.2775621 3.78584887,19.2522693 3.94251839,19.3773384 L4.58161263,19.8869308 L5.80620839,18.513691 C5.93940005,18.3642292 6.16921211,18.3505927 6.31924462,18.4836277 C6.46941257,18.6167527 6.48286719,18.8456935 6.34949493,18.9952903 Z" id="Shape"></path>
        </g>
        <rect id="Rectangle" fill-opacity="0.65" fill="#000000" x="0" y="-1" width="360" height="586"></rect>
        <rect id="Rectangle" fill="#FFFFFF" x="18" y="156" width="324" height="272" rx="5"></rect>
        <g id="003-star" transform="translate(53.000000, 325.000000)" fill="#000000" fill-rule="nonzero">
            <path d="M38.6776667,17.2037083 C39.455875,16.4452917 39.7305833,15.3322083 39.3949167,14.2975 C39.0584583,13.2627917 38.1820833,12.5241667 37.1054167,12.3674167 L27.5325833,10.9764583 C27.124875,10.9170833 26.7725833,10.661375 26.5905,10.2916667 L22.31075,1.617375 C21.8302083,0.642833333 20.854875,0.0372083333 19.7679167,0.0372083333 C18.68175,0.0372083333 17.7064167,0.642833333 17.225875,1.617375 L12.9453333,10.2916667 C12.76325,10.661375 12.4101667,10.9170833 12.0024583,10.9764583 L2.429625,12.3682083 C1.35375,12.5241667 0.477375,13.2627917 0.140916667,14.2975 C-0.19475,15.3322083 0.0799583333,16.4452917 0.858166667,17.2037083 L7.78445833,23.9550417 C8.07975,24.2432083 8.215125,24.6580417 8.14545833,25.063375 L6.51066667,34.5974167 C6.327,35.6685417 6.75845833,36.7301667 7.638,37.3698333 C8.51675,38.0102917 9.66070833,38.0934167 10.6241667,37.5859583 L19.18525,33.0845417 C19.5502083,32.8929583 19.985625,32.8929583 20.3505833,33.0845417 L28.9124583,37.5859583 C29.3304583,37.8060417 29.7832917,37.9145 30.23375,37.9145 C30.8187917,37.9145 31.4014583,37.731625 31.898625,37.3698333 C32.7781667,36.7301667 33.209625,35.6685417 33.0259583,34.5974167 L31.390375,25.0641667 C31.3207083,24.6580417 31.4560833,24.244 31.751375,23.9558333 L38.6776667,17.2037083 Z M29.8307917,25.33175 L31.4655833,34.865 C31.5479167,35.34475 31.361875,35.803125 30.967625,36.0897083 C30.5725833,36.3755 30.0809583,36.4103333 29.6495,36.1855 L21.087625,31.6832917 C20.6751667,31.4671667 20.22075,31.3579167 19.7679167,31.3579167 C19.3150833,31.3579167 18.8614583,31.4671667 18.4482083,31.6840833 L9.88791667,36.1855 C9.454875,36.4103333 8.96325,36.3755 8.569,36.0897083 C8.17475,35.803125 7.9895,35.3455417 8.07104167,34.865 L9.70583333,25.33175 C9.863375,24.4118333 9.55858333,23.4729167 8.89041667,22.8221667 L1.96333333,16.0700417 C1.61420833,15.729625 1.49545833,15.249875 1.64666667,14.78675 C1.79708333,14.3228333 2.17470833,14.0045833 2.65683333,13.934125 L12.228875,12.5431667 C13.15275,12.409375 13.9515417,11.829875 14.364,10.9922917 L18.6445417,2.318 C18.859875,1.881 19.28025,1.62054167 19.767125,1.62054167 C20.2547917,1.62054167 20.674375,1.881 20.8905,2.318 L25.1710417,10.9922917 C25.5835,11.829875 26.3815,12.409375 27.305375,12.5431667 L36.8782083,13.934125 C37.3603333,14.0045833 37.7379583,14.3228333 37.888375,14.78675 C38.0387917,15.249875 37.9208333,15.729625 37.5717083,16.0700417 L30.6454167,22.821375 C29.97725,23.4729167 29.6724583,24.4110417 29.8307917,25.33175 Z" id="Shape"></path>
        </g>
        <g id="003-star-copy" transform="translate(107.000000, 325.000000)" fill="#000000" fill-rule="nonzero">
            <path d="M38.6776667,17.2037083 C39.455875,16.4452917 39.7305833,15.3322083 39.3949167,14.2975 C39.0584583,13.2627917 38.1820833,12.5241667 37.1054167,12.3674167 L27.5325833,10.9764583 C27.124875,10.9170833 26.7725833,10.661375 26.5905,10.2916667 L22.31075,1.617375 C21.8302083,0.642833333 20.854875,0.0372083333 19.7679167,0.0372083333 C18.68175,0.0372083333 17.7064167,0.642833333 17.225875,1.617375 L12.9453333,10.2916667 C12.76325,10.661375 12.4101667,10.9170833 12.0024583,10.9764583 L2.429625,12.3682083 C1.35375,12.5241667 0.477375,13.2627917 0.140916667,14.2975 C-0.19475,15.3322083 0.0799583333,16.4452917 0.858166667,17.2037083 L7.78445833,23.9550417 C8.07975,24.2432083 8.215125,24.6580417 8.14545833,25.063375 L6.51066667,34.5974167 C6.327,35.6685417 6.75845833,36.7301667 7.638,37.3698333 C8.51675,38.0102917 9.66070833,38.0934167 10.6241667,37.5859583 L19.18525,33.0845417 C19.5502083,32.8929583 19.985625,32.8929583 20.3505833,33.0845417 L28.9124583,37.5859583 C29.3304583,37.8060417 29.7832917,37.9145 30.23375,37.9145 C30.8187917,37.9145 31.4014583,37.731625 31.898625,37.3698333 C32.7781667,36.7301667 33.209625,35.6685417 33.0259583,34.5974167 L31.390375,25.0641667 C31.3207083,24.6580417 31.4560833,24.244 31.751375,23.9558333 L38.6776667,17.2037083 Z M29.8307917,25.33175 L31.4655833,34.865 C31.5479167,35.34475 31.361875,35.803125 30.967625,36.0897083 C30.5725833,36.3755 30.0809583,36.4103333 29.6495,36.1855 L21.087625,31.6832917 C20.6751667,31.4671667 20.22075,31.3579167 19.7679167,31.3579167 C19.3150833,31.3579167 18.8614583,31.4671667 18.4482083,31.6840833 L9.88791667,36.1855 C9.454875,36.4103333 8.96325,36.3755 8.569,36.0897083 C8.17475,35.803125 7.9895,35.3455417 8.07104167,34.865 L9.70583333,25.33175 C9.863375,24.4118333 9.55858333,23.4729167 8.89041667,22.8221667 L1.96333333,16.0700417 C1.61420833,15.729625 1.49545833,15.249875 1.64666667,14.78675 C1.79708333,14.3228333 2.17470833,14.0045833 2.65683333,13.934125 L12.228875,12.5431667 C13.15275,12.409375 13.9515417,11.829875 14.364,10.9922917 L18.6445417,2.318 C18.859875,1.881 19.28025,1.62054167 19.767125,1.62054167 C20.2547917,1.62054167 20.674375,1.881 20.8905,2.318 L25.1710417,10.9922917 C25.5835,11.829875 26.3815,12.409375 27.305375,12.5431667 L36.8782083,13.934125 C37.3603333,14.0045833 37.7379583,14.3228333 37.888375,14.78675 C38.0387917,15.249875 37.9208333,15.729625 37.5717083,16.0700417 L30.6454167,22.821375 C29.97725,23.4729167 29.6724583,24.4110417 29.8307917,25.33175 Z" id="Shape"></path>
        </g>
        <g id="003-star-copy-2" transform="translate(161.000000, 325.000000)" fill="#000000" fill-rule="nonzero">
            <path d="M38.6776667,17.2037083 C39.455875,16.4452917 39.7305833,15.3322083 39.3949167,14.2975 C39.0584583,13.2627917 38.1820833,12.5241667 37.1054167,12.3674167 L27.5325833,10.9764583 C27.124875,10.9170833 26.7725833,10.661375 26.5905,10.2916667 L22.31075,1.617375 C21.8302083,0.642833333 20.854875,0.0372083333 19.7679167,0.0372083333 C18.68175,0.0372083333 17.7064167,0.642833333 17.225875,1.617375 L12.9453333,10.2916667 C12.76325,10.661375 12.4101667,10.9170833 12.0024583,10.9764583 L2.429625,12.3682083 C1.35375,12.5241667 0.477375,13.2627917 0.140916667,14.2975 C-0.19475,15.3322083 0.0799583333,16.4452917 0.858166667,17.2037083 L7.78445833,23.9550417 C8.07975,24.2432083 8.215125,24.6580417 8.14545833,25.063375 L6.51066667,34.5974167 C6.327,35.6685417 6.75845833,36.7301667 7.638,37.3698333 C8.51675,38.0102917 9.66070833,38.0934167 10.6241667,37.5859583 L19.18525,33.0845417 C19.5502083,32.8929583 19.985625,32.8929583 20.3505833,33.0845417 L28.9124583,37.5859583 C29.3304583,37.8060417 29.7832917,37.9145 30.23375,37.9145 C30.8187917,37.9145 31.4014583,37.731625 31.898625,37.3698333 C32.7781667,36.7301667 33.209625,35.6685417 33.0259583,34.5974167 L31.390375,25.0641667 C31.3207083,24.6580417 31.4560833,24.244 31.751375,23.9558333 L38.6776667,17.2037083 Z M29.8307917,25.33175 L31.4655833,34.865 C31.5479167,35.34475 31.361875,35.803125 30.967625,36.0897083 C30.5725833,36.3755 30.0809583,36.4103333 29.6495,36.1855 L21.087625,31.6832917 C20.6751667,31.4671667 20.22075,31.3579167 19.7679167,31.3579167 C19.3150833,31.3579167 18.8614583,31.4671667 18.4482083,31.6840833 L9.88791667,36.1855 C9.454875,36.4103333 8.96325,36.3755 8.569,36.0897083 C8.17475,35.803125 7.9895,35.3455417 8.07104167,34.865 L9.70583333,25.33175 C9.863375,24.4118333 9.55858333,23.4729167 8.89041667,22.8221667 L1.96333333,16.0700417 C1.61420833,15.729625 1.49545833,15.249875 1.64666667,14.78675 C1.79708333,14.3228333 2.17470833,14.0045833 2.65683333,13.934125 L12.228875,12.5431667 C13.15275,12.409375 13.9515417,11.829875 14.364,10.9922917 L18.6445417,2.318 C18.859875,1.881 19.28025,1.62054167 19.767125,1.62054167 C20.2547917,1.62054167 20.674375,1.881 20.8905,2.318 L25.1710417,10.9922917 C25.5835,11.829875 26.3815,12.409375 27.305375,12.5431667 L36.8782083,13.934125 C37.3603333,14.0045833 37.7379583,14.3228333 37.888375,14.78675 C38.0387917,15.249875 37.9208333,15.729625 37.5717083,16.0700417 L30.6454167,22.821375 C29.97725,23.4729167 29.6724583,24.4110417 29.8307917,25.33175 Z" id="Shape"></path>
        </g>
        <g id="003-star-copy-3" transform="translate(214.000000, 325.000000)" fill="#000000" fill-rule="nonzero">
            <path d="M38.6776667,17.2037083 C39.455875,16.4452917 39.7305833,15.3322083 39.3949167,14.2975 C39.0584583,13.2627917 38.1820833,12.5241667 37.1054167,12.3674167 L27.5325833,10.9764583 C27.124875,10.9170833 26.7725833,10.661375 26.5905,10.2916667 L22.31075,1.617375 C21.8302083,0.642833333 20.854875,0.0372083333 19.7679167,0.0372083333 C18.68175,0.0372083333 17.7064167,0.642833333 17.225875,1.617375 L12.9453333,10.2916667 C12.76325,10.661375 12.4101667,10.9170833 12.0024583,10.9764583 L2.429625,12.3682083 C1.35375,12.5241667 0.477375,13.2627917 0.140916667,14.2975 C-0.19475,15.3322083 0.0799583333,16.4452917 0.858166667,17.2037083 L7.78445833,23.9550417 C8.07975,24.2432083 8.215125,24.6580417 8.14545833,25.063375 L6.51066667,34.5974167 C6.327,35.6685417 6.75845833,36.7301667 7.638,37.3698333 C8.51675,38.0102917 9.66070833,38.0934167 10.6241667,37.5859583 L19.18525,33.0845417 C19.5502083,32.8929583 19.985625,32.8929583 20.3505833,33.0845417 L28.9124583,37.5859583 C29.3304583,37.8060417 29.7832917,37.9145 30.23375,37.9145 C30.8187917,37.9145 31.4014583,37.731625 31.898625,37.3698333 C32.7781667,36.7301667 33.209625,35.6685417 33.0259583,34.5974167 L31.390375,25.0641667 C31.3207083,24.6580417 31.4560833,24.244 31.751375,23.9558333 L38.6776667,17.2037083 Z M29.8307917,25.33175 L31.4655833,34.865 C31.5479167,35.34475 31.361875,35.803125 30.967625,36.0897083 C30.5725833,36.3755 30.0809583,36.4103333 29.6495,36.1855 L21.087625,31.6832917 C20.6751667,31.4671667 20.22075,31.3579167 19.7679167,31.3579167 C19.3150833,31.3579167 18.8614583,31.4671667 18.4482083,31.6840833 L9.88791667,36.1855 C9.454875,36.4103333 8.96325,36.3755 8.569,36.0897083 C8.17475,35.803125 7.9895,35.3455417 8.07104167,34.865 L9.70583333,25.33175 C9.863375,24.4118333 9.55858333,23.4729167 8.89041667,22.8221667 L1.96333333,16.0700417 C1.61420833,15.729625 1.49545833,15.249875 1.64666667,14.78675 C1.79708333,14.3228333 2.17470833,14.0045833 2.65683333,13.934125 L12.228875,12.5431667 C13.15275,12.409375 13.9515417,11.829875 14.364,10.9922917 L18.6445417,2.318 C18.859875,1.881 19.28025,1.62054167 19.767125,1.62054167 C20.2547917,1.62054167 20.674375,1.881 20.8905,2.318 L25.1710417,10.9922917 C25.5835,11.829875 26.3815,12.409375 27.305375,12.5431667 L36.8782083,13.934125 C37.3603333,14.0045833 37.7379583,14.3228333 37.888375,14.78675 C38.0387917,15.249875 37.9208333,15.729625 37.5717083,16.0700417 L30.6454167,22.821375 C29.97725,23.4729167 29.6724583,24.4110417 29.8307917,25.33175 Z" id="Shape"></path>
        </g>
        <g id="003-star-copy-4" transform="translate(268.000000, 325.000000)" fill="#000000" fill-rule="nonzero">
            <path d="M38.6776667,17.2037083 C39.455875,16.4452917 39.7305833,15.3322083 39.3949167,14.2975 C39.0584583,13.2627917 38.1820833,12.5241667 37.1054167,12.3674167 L27.5325833,10.9764583 C27.124875,10.9170833 26.7725833,10.661375 26.5905,10.2916667 L22.31075,1.617375 C21.8302083,0.642833333 20.854875,0.0372083333 19.7679167,0.0372083333 C18.68175,0.0372083333 17.7064167,0.642833333 17.225875,1.617375 L12.9453333,10.2916667 C12.76325,10.661375 12.4101667,10.9170833 12.0024583,10.9764583 L2.429625,12.3682083 C1.35375,12.5241667 0.477375,13.2627917 0.140916667,14.2975 C-0.19475,15.3322083 0.0799583333,16.4452917 0.858166667,17.2037083 L7.78445833,23.9550417 C8.07975,24.2432083 8.215125,24.6580417 8.14545833,25.063375 L6.51066667,34.5974167 C6.327,35.6685417 6.75845833,36.7301667 7.638,37.3698333 C8.51675,38.0102917 9.66070833,38.0934167 10.6241667,37.5859583 L19.18525,33.0845417 C19.5502083,32.8929583 19.985625,32.8929583 20.3505833,33.0845417 L28.9124583,37.5859583 C29.3304583,37.8060417 29.7832917,37.9145 30.23375,37.9145 C30.8187917,37.9145 31.4014583,37.731625 31.898625,37.3698333 C32.7781667,36.7301667 33.209625,35.6685417 33.0259583,34.5974167 L31.390375,25.0641667 C31.3207083,24.6580417 31.4560833,24.244 31.751375,23.9558333 L38.6776667,17.2037083 Z M29.8307917,25.33175 L31.4655833,34.865 C31.5479167,35.34475 31.361875,35.803125 30.967625,36.0897083 C30.5725833,36.3755 30.0809583,36.4103333 29.6495,36.1855 L21.087625,31.6832917 C20.6751667,31.4671667 20.22075,31.3579167 19.7679167,31.3579167 C19.3150833,31.3579167 18.8614583,31.4671667 18.4482083,31.6840833 L9.88791667,36.1855 C9.454875,36.4103333 8.96325,36.3755 8.569,36.0897083 C8.17475,35.803125 7.9895,35.3455417 8.07104167,34.865 L9.70583333,25.33175 C9.863375,24.4118333 9.55858333,23.4729167 8.89041667,22.8221667 L1.96333333,16.0700417 C1.61420833,15.729625 1.49545833,15.249875 1.64666667,14.78675 C1.79708333,14.3228333 2.17470833,14.0045833 2.65683333,13.934125 L12.228875,12.5431667 C13.15275,12.409375 13.9515417,11.829875 14.364,10.9922917 L18.6445417,2.318 C18.859875,1.881 19.28025,1.62054167 19.767125,1.62054167 C20.2547917,1.62054167 20.674375,1.881 20.8905,2.318 L25.1710417,10.9922917 C25.5835,11.829875 26.3815,12.409375 27.305375,12.5431667 L36.8782083,13.934125 C37.3603333,14.0045833 37.7379583,14.3228333 37.888375,14.78675 C38.0387917,15.249875 37.9208333,15.729625 37.5717083,16.0700417 L30.6454167,22.821375 C29.97725,23.4729167 29.6724583,24.4110417 29.8307917,25.33175 Z" id="Shape"></path>
        </g>
        <text id="Rate-the-Xclusify-ap" font-family="Avenir-Medium, Avenir" font-size="15" font-weight="400" fill="#000000">
            <tspan x="108" y="192">Rate the Xclusify app</tspan>
        </text>
        <text id="Rate-here!" font-family="Avenir-Black, Avenir" font-size="15" font-weight="700" fill="#292A2C">
            <tspan x="145" y="400">Rate here!</tspan>
        </text>
        <g id="001-rating" transform="translate(145.000000, 217.000000)" fill-rule="nonzero">
            <g id="Group" transform="translate(2.000000, 1.000000)" fill="#FFBC53">
                <path d="M60.0206423,0.526447154 L62.0166911,4.56802439 C62.1543496,4.84679675 62.4204065,5.04001626 62.7282033,5.08465854 L67.1891138,5.73162602 C67.964065,5.84399187 68.2736585,6.79626829 67.7130732,7.34289431 L64.4861138,10.4902439 C64.2634553,10.707374 64.1620081,11.0201463 64.2146667,11.326561 L64.9778699,15.7690894 C65.1104146,16.5408618 64.3004959,17.1295041 63.6073659,16.7653171 L59.6169268,14.6687886 C59.3416098,14.5242195 59.0128049,14.5242195 58.737626,14.669065 L54.7482927,16.7676667 C54.0553008,17.1322683 53.2451057,16.5439024 53.3772358,15.7721301 L54.1380894,11.329187 C54.1906098,11.0227724 54.0888862,10.71 53.8662276,10.4930081 L50.6376098,7.34745528 C50.076748,6.80110569 50.3859268,5.84869106 51.1607398,5.73591057 L55.621374,5.0865935 C55.9290325,5.04181301 56.1950894,4.84845528 56.3326098,4.56954472 L58.3264472,0.526861789 C58.6726667,-0.175390244 59.6740081,-0.175666667 60.0206423,0.526447154 Z" id="Path"></path>
                <path d="M34.845439,0.526447154 L36.8414878,4.56802439 C36.9791463,4.84679675 37.2452033,5.04001626 37.553,5.08465854 L42.0139106,5.73162602 C42.7888618,5.84399187 43.0984553,6.79626829 42.5378699,7.34289431 L39.3107724,10.4902439 C39.0881138,10.707374 38.9866667,11.0201463 39.0393252,11.326561 L39.8025285,15.7690894 C39.9350732,16.5408618 39.1251545,17.1295041 38.4320244,16.7653171 L34.4415854,14.6687886 C34.1662683,14.5242195 33.8374634,14.5242195 33.5622846,14.669065 L29.5729512,16.7676667 C28.8799593,17.1322683 28.0697642,16.5439024 28.2018943,15.7721301 L28.962748,11.329187 C29.0152683,11.0227724 28.9135447,10.71 28.6908862,10.4930081 L25.4622683,7.34745528 C24.9014065,6.80110569 25.2105854,5.84869106 25.9853984,5.73591057 L30.4460325,5.0865935 C30.7536911,5.04181301 31.019748,4.84845528 31.1572683,4.56954472 L33.1511057,0.526861789 C33.4973252,-0.175390244 34.4986667,-0.175666667 34.845439,0.526447154 Z" id="Path"></path>
                <path d="M9.67023577,0.526447154 L11.6662846,4.56802439 C11.8039431,4.84679675 12.07,5.04001626 12.3777967,5.08465854 L16.8387073,5.73162602 C17.6136585,5.84399187 17.923252,6.79626829 17.3626667,7.34289431 L14.1354309,10.4902439 C13.9127724,10.707374 13.8113252,11.0201463 13.8639837,11.326561 L14.627187,15.7690894 C14.7597317,16.5408618 13.949813,17.1295041 13.2566829,16.7653171 L9.2662439,14.6687886 C8.99092683,14.5242195 8.66212195,14.5242195 8.38694309,14.669065 L4.39760976,16.7676667 C3.70461789,17.1322683 2.89442276,16.5439024 3.02655285,15.7721301 L3.7874065,11.329187 C3.83992683,11.0227724 3.73820325,10.71 3.51554472,10.4930081 L0.286926829,7.34745528 C-0.273934959,6.80110569 0.0352439024,5.84869106 0.810056911,5.73591057 L5.27069106,5.0865935 C5.57834959,5.04181301 5.8444065,4.84845528 5.98192683,4.56954472 L7.97576423,0.526861789 C8.32226016,-0.175390244 9.32346341,-0.175666667 9.67023577,0.526447154 Z" id="Path"></path>
            </g>
            <path d="M52.5927643,69 L54.5382981,62.811703 C55.5070652,59.7302797 56,56.5196784 56,53.2905053 L56,41.6825131 C56,39.8555877 54.515265,38.3746501 52.6836551,38.3746501 L52.6836551,38.3746501 C50.8520453,38.3746501 49.3673103,39.8555877 49.3673103,41.6825131 L49.3673103,45.7200457 L49.3673103,40.8122473 L49.3673103,39.2450535 C49.3673103,37.4181281 47.8825753,35.9371905 46.0509654,35.9371905 L46.0509654,35.9371905 C44.2193555,35.9371905 42.7346206,37.4181281 42.7346206,39.2450535 L42.7346206,40.4274649 L42.7346206,45.7200457 L42.7346206,37.1498672 C42.7346206,35.3229418 41.2498856,33.8420042 39.4182757,33.8420042 L39.4182757,33.8420042 C37.5866658,33.8420042 36.1019309,35.3229418 36.1019309,37.1498672 L36.1019309,45.7200457 L36.1019309,26.307863 C36.1019309,24.4809376 34.6171959,23 32.785586,23 L32.785586,23 C30.9539761,23 29.4692411,24.4809376 29.4692411,26.307863 L29.4692411,50.2847453 L25.5744496,43.0912266 C24.6747816,41.4295225 22.6127033,40.7837704 20.922326,41.6343637 L20.922326,41.6343637 C19.4727613,42.3637582 18.7170843,43.9924456 19.0978881,45.5667931 L21.622834,56.0058557 C22.1673518,58.2571835 23.1529455,60.3787832 24.5227911,62.2486303 L29.4689653,69 L52.5927643,69 L52.5927643,69 Z" id="Path" fill="#FFCDAC"></path>
            <path d="M28.64448,39 C27.8959643,39 27.2892099,39.6166027 27.2892099,40.37696 L27.2892099,45.4427959 L26.0098349,43.0358698 C24.7681364,40.7001325 21.9680127,39.8066232 19.6355928,41.0026506 C17.6394154,42.0258696 16.611443,44.2827071 17.135797,46.4909379 L19.61689,56.9394482 C20.1968101,59.3818999 21.2307457,61.6489268 22.6898296,63.677602 L27.5503704,70.4353087 C27.8157323,70.804334 28.22787,71 28.6456998,71 C28.9231236,71 29.2031224,70.9136646 29.4442249,70.7346598 C30.0485399,70.2859085 30.1805432,69.4243447 29.7388607,68.8103582 L24.8783198,62.0526515 C23.6312002,60.3187835 22.7475641,58.381263 22.2519418,56.2936539 L19.7708487,45.8450059 C19.5430278,44.8859533 19.9895893,43.9058331 20.8565557,43.4613505 C21.8697556,42.9419611 23.085704,43.3298508 23.624966,44.3443949 L27.4521134,51.5445188 C27.7470201,52.099296 28.3751878,52.3793697 28.9767923,52.2251502 C29.5783967,52.0706553 30,51.5206974 30,50.8901874 L30,40.37696 C29.9997502,39.616465 29.3929957,39 28.64448,39 Z" id="Path" fill="#000000"></path>
            <path d="M52.3508177,37.4531984 C51.5449777,37.4531984 50.7863873,37.6621244 50.1248911,38.0289549 C49.4547916,36.2615872 47.7621315,35.0031915 45.7835149,35.0031915 C44.930152,35.0031915 44.1304571,35.2382506 43.4423317,35.6461472 C42.70682,34.0258988 41.089814,32.8973387 39.2163486,32.8973387 C38.5325931,32.8973387 37.8835238,33.0487444 37.2983646,33.3182327 L37.2983646,26.7074037 C37.2983646,24.1117984 35.2128216,22 32.6491823,22 C30.085543,22 28,24.1116601 28,26.7074037 L28,29.1041766 C28,29.8677038 28.6113787,30.486877 29.3655991,30.486877 C30.1198196,30.486877 30.7311983,29.8677038 30.7311983,29.1041766 L30.7311983,26.7075419 C30.7311983,25.6367787 31.5916623,24.7655392 32.6491823,24.7655392 C33.7067023,24.7655392 34.5673028,25.636917 34.5673028,26.7076802 L34.5673028,46.2185513 C34.5673028,46.9820785 35.1786816,47.6012518 35.932902,47.6012518 C36.6871224,47.6012518 37.2985011,46.9820785 37.2985011,46.2185513 L37.2985011,37.6048807 C37.2985011,36.5341174 38.1588286,35.6628779 39.2164851,35.6628779 C40.2741417,35.6628779 41.1344691,36.5341174 41.1344691,37.6048807 L41.1344691,46.2185513 C41.1344691,46.9820785 41.7458479,47.6012518 42.5000683,47.6012518 C43.2542887,47.6012518 43.8656674,46.9820785 43.8656674,46.2185513 L43.8656674,39.7107334 C43.8656674,38.6398319 44.7259949,37.7685924 45.7836514,37.7685924 C46.841308,37.7685924 47.7016354,38.6398319 47.7016354,39.7107334 L47.7016354,46.2185513 C47.7016354,46.9820785 48.3130142,47.6012518 49.0672346,47.6012518 C49.821455,47.6012518 50.4328337,46.9820785 50.4328337,46.2185513 L50.4328337,42.1604638 C50.4328337,41.0897006 51.2932977,40.218461 52.3508177,40.218461 C53.4083377,40.218461 54.2688017,41.0897006 54.2688017,42.1604638 L54.2688017,53.8275519 C54.2688017,56.9364155 53.8028593,60.0170721 52.8840842,62.9835176 L50.95777,69.2031808 C50.732173,69.9318639 51.1325667,70.7078354 51.8522375,70.9362575 C51.9882511,70.979536 52.125767,71 52.2612344,71 C52.8421603,71 53.3808891,70.6215549 53.5638794,70.0305887 L55.4901936,63.8109256 C56.4919971,60.5762362 57,57.217242 57,53.8275519 L57,42.1604638 C57,39.5649968 54.914457,37.4531984 52.3508177,37.4531984 Z" id="Path" fill="#000000"></path>
            <path d="M70.8809078,7.08928886 C70.5971115,6.26858425 69.8564828,5.68183193 68.9480788,5.55790407 L64.5931708,4.96420002 L62.6445595,1.25411791 C62.2383441,0.480471141 61.4159604,0 60.4984567,0 C60.4983145,0 60.4980302,0 60.497888,0 C59.5799577,0 58.7575741,0.481139576 58.351643,1.25518741 L56.4051645,4.96607164 L52.0505408,5.56218205 C51.142279,5.68651098 50.4019347,6.27366436 50.1187071,7.09463634 C49.8353374,7.91547462 50.0678058,8.79941318 50.7251155,9.40153951 L53.8771595,12.2889117 L53.1343981,16.3671679 C52.9795613,17.2178184 53.344686,18.0612498 54.0873053,18.5681909 C54.5067437,18.8546822 54.9974155,19 55.4913575,19 C55.8719801,19 56.2545932,18.9136382 56.6080589,18.7389093 L60.50258,16.8124793 L64.3982386,18.7370376 C65.2106694,19.1386334 66.1766574,19.0725921 66.9189922,18.5649824 C67.6613271,18.0575065 68.0260252,17.2140751 67.8704776,16.3634246 L67.1254412,12.2855695 L70.2757791,9.39672678 C70.9328044,8.7940657 71.1647041,7.90985977 70.8809078,7.08928886 Z M64.9708075,10.5266495 C64.4064851,11.0438845 64.1494192,11.7887886 64.2829285,12.5189871 L64.9136501,15.9711869 L61.6158691,14.3420769 C60.9181795,13.9971644 60.0852744,13.9975655 59.3878692,14.342478 L56.0909412,15.9733259 L56.7198144,12.5205913 C56.8526129,11.7903928 56.5951203,11.0458898 56.0306558,10.5287884 L53.3621745,8.08445501 L57.0489669,7.57992021 C57.8285536,7.47310428 58.5022143,7.01268619 58.8507036,6.34812803 L60.4985989,3.20675049 L62.1482004,6.34719222 C62.4971162,7.0116167 63.1709191,7.47163373 63.9509324,7.57818228 L67.6377248,8.08097915 L64.9708075,10.5266495 Z" id="Shape" fill="#000000"></path>
            <path d="M28.8771333,12.2888645 L28.1343769,16.3671494 C27.9795412,17.2178058 28.3446634,18.0612432 29.0872776,18.5681879 C29.5067131,18.8546812 29.9973817,19 30.4913203,19 C30.8719403,19 31.2545509,18.9136376 31.6080142,18.7389074 L35.5026511,16.8125976 L39.3982832,18.7370358 C40.2107086,19.1386344 41.17669,19.0725926 41.9190199,18.5649794 C42.6613497,18.0574999 43.0260454,17.2140626 42.8704988,16.3634061 L42.1254675,12.2855223 L45.275784,9.39665921 C45.9328049,8.79412758 46.164703,7.91004911 45.8809086,7.08933874 C45.5971143,6.26862836 44.8566328,5.68173822 43.9482349,5.55794318 L39.5933563,4.96423495 L37.6446161,1.25412674 C37.2382612,0.480474522 36.4160253,0 35.4983856,0 C35.4982435,0 35.4979591,0 35.4976747,0 C34.5798929,0 33.7575148,0.481142962 33.3515865,1.25519624 L31.4051211,4.96610658 L27.050527,5.56222119 C26.1422712,5.68655099 25.4019319,6.2737085 25.1187063,7.09468626 C24.8353385,7.91553032 25.0678053,8.7994751 25.7251106,9.40160566 L28.8771333,12.2888645 Z M32.0489192,7.57997354 C32.8285006,7.47315687 33.5021567,7.01273554 33.8507859,6.3481727 L35.49867,3.20663937 L37.1482603,6.34723688 C37.4970316,7.01153235 38.17083,7.4716863 38.9509801,7.5782356 L42.6377476,8.08103601 L39.9708483,10.5267235 C39.406672,11.0438285 39.1496077,11.7886042 39.282974,12.5190752 L39.9136914,15.9712993 L36.6159326,14.3421778 C35.9181056,13.9973966 35.0850639,13.9975303 34.3879478,14.3425789 L31.0908999,15.9734383 L31.7197689,12.5206794 C31.8525665,11.7903421 31.5950757,11.0458339 31.0306149,10.5288625 L28.3622939,8.0845119 L32.0489192,7.57997354 Z" id="Shape" fill="#000000"></path>
            <path d="M17.8704853,16.3631572 L17.1254508,12.2853021 L20.2757809,9.39645936 C20.9328046,8.79393197 21.1647037,7.90985973 20.8809081,7.08915513 C20.5971125,6.26845054 19.8564857,5.68169822 18.9480839,5.55777036 L14.5931866,4.96406631 L12.6447223,1.25411791 C12.2383657,0.480471139 11.4161263,0 10.4984826,0 C10.4983405,0 10.4980561,0 10.4977717,0 C9.5799859,0 8.7576043,0.481139574 8.35167424,1.2551874 L6.40520051,4.96607162 L2.05058759,5.56218203 C1.14232797,5.68651095 0.402127656,6.27366433 0.118758617,7.09450261 C-0.164610422,7.9153409 0.0675730405,8.79927945 0.725023335,9.40153947 L3.87705958,12.2889117 L3.13429999,16.3671678 C2.97946362,17.2178183 3.3445874,18.0612497 4.0872048,18.5683245 C4.50678435,18.8546821 4.99731279,19 5.49139579,19 C5.87201742,19 6.25462961,18.9136381 6.60809445,18.7389092 L10.5027481,16.8126129 L14.398397,18.7370375 C15.210968,19.138366 16.1768114,19.0724583 16.9191445,18.565116 C17.6613353,18.0573728 18.0258904,17.213674 17.8704853,16.3631572 Z M14.9709646,10.5265157 C14.4066436,11.0436171 14.1494361,11.7885212 14.2829451,12.518987 L14.9136652,15.9711869 L11.6160344,14.3420769 C10.9183465,13.997298 10.0853013,13.9974317 9.38803999,14.3424779 L6.09083576,15.9734595 L6.71956526,12.5209923 C6.85264776,11.7907938 6.59515587,11.0461571 6.03055053,10.5289221 L3.36236017,8.08445498 L7.04900132,7.57992017 C7.82858609,7.47310425 8.50224515,7.01268616 8.85073361,6.348128 L10.4986248,3.20661679 L12.1482222,6.34719219 C12.496995,7.01148298 13.1707963,7.47163369 13.9509498,7.57818224 L17.6378753,8.08097911 L14.9709646,10.5265157 Z" id="Shape" fill="#000000"></path>
            <path d="M28.5,33 C28.1055,33 27.7185,33.16035 27.4395,33.4395 C27.1605,33.71865 27,34.10535 27,34.5 C27,34.8945 27.1605,35.2815 27.4395,35.56035 C27.7185,35.83935 28.1055,36 28.5,36 C28.8945,36 29.2815,35.8395 29.5605,35.56035 C29.8395,35.2815 30,34.8945 30,34.5 C30,34.10535 29.8395,33.7185 29.5605,33.4395 C29.2815,33.16035 28.89465,33 28.5,33 Z" id="Path" fill="#000000"></path>
        </g>
    </g>
</svg>