<?xml version="1.0" encoding="UTF-8"?>
<svg width="360px" height="585px" viewBox="0 0 360 585" version="1.1" xmlns="http://www.w3.org/2000/svg" xmlns:xlink="http://www.w3.org/1999/xlink">
    <!-- Generator: Sketch 55.2 (78181) - https://sketchapp.com -->
    <title>Terms</title>
    <desc>Created with Sketch.</desc>
    <defs>
        <linearGradient x1="50%" y1="0%" x2="50%" y2="74.0366343%" id="linearGradient-1">
            <stop stop-color="#000000" stop-opacity="0" offset="0%"></stop>
            <stop stop-color="#292A2C" offset="100%"></stop>
        </linearGradient>
        <rect id="path-2" x="0" y="0.998315043" width="360" height="61"></rect>
        <filter x="-1.9%" y="-8.2%" width="103.9%" height="123.0%" filterUnits="objectBoundingBox" id="filter-3">
            <feOffset dx="0" dy="2" in="SourceAlpha" result="shadowOffsetOuter1"></feOffset>
            <feGaussianBlur stdDeviation="2" in="shadowOffsetOuter1" result="shadowBlurOuter1"></feGaussianBlur>
            <feColorMatrix values="0 0 0 0 0   0 0 0 0 0   0 0 0 0 0  0 0 0 0.5 0" type="matrix" in="shadowBlurOuter1"></feColorMatrix>
        </filter>
    </defs>
    <g id="Terms" stroke="none" stroke-width="1" fill="none" fill-rule="evenodd">
        <rect fill="#000000" x="0" y="0" width="360" height="585"></rect>
        <g id="Menu-2" transform="translate(0.000000, -2.000000)">
            <rect id="Rectangle-Copy" fill="url(#linearGradient-1)" x="0" y="5" width="360" height="586"></rect>
            <g id="Header">
                <g id="status-bar">
                    <g id="Rectangle">
                        <use fill="black" fill-opacity="1" filter="url(#filter-3)" xlink:href="#path-2"></use>
                        <use fill="#333333" fill-rule="evenodd" xlink:href="#path-2"></use>
                    </g>
                    <g id="Material/Android/Status-bar-content-light" transform="translate(271.000000, 2.598909)">
                        <g id="time" opacity="0.9" transform="translate(54.000000, 2.000000)" fill="#FFFFFF" font-family="Roboto-Medium, Roboto" font-size="11" font-weight="400">
                            <text id="12:30">
                                <tspan x="0.0756835938" y="10">12:30</tspan>
                            </text>
                        </g>
                        <g id="battery" transform="translate(38.000000, 3.000000)">
                            <polygon id="bounds" points="0 0 11 0 11 11 0 11"></polygon>
                            <polygon id="Shape" fill="#FFFFFF" points="6.1875 1.2890625 6.1875 0.6875 4.125 0.6875 4.125 1.2890625 2.0625 1.2890625 2.0625 10.3125 8.25 10.3125 8.25 1.2890625"></polygon>
                        </g>
                        <g id="cellular" transform="translate(23.000000, 3.000000)">
                            <polygon id="bounds" points="0 0 11 0 11 11 0 11"></polygon>
                            <polygon id="Shape" fill="#FFFFFF" points="0 10.3125 9.625 10.3125 9.625 0.6875"></polygon>
                        </g>
                        <g id="wifi" transform="translate(5.000000, 3.000000)">
                            <polygon id="bounds" points="1.4 0 12.6 0 12.6 11 1.4 11"></polygon>
                            <path d="M0.68416046,2.76095272 C2.44175336,1.45926262 4.62911059,0.6875 7,0.6875 C9.37088941,0.6875 11.5582466,1.45926262 13.3158395,2.76095272 L7,10.3125 L0.68416046,2.76095272 Z" id="Shape" fill="#FFFFFF"></path>
                        </g>
                    </g>
                </g>
            </g>
        </g>
        <g id="left-arrow" transform="translate(14.000000, 26.000000)" fill="#FFFFFF" fill-rule="nonzero">
            <path d="M21.9508819,8.05990909 L0.924020979,8.05990909 C0.413714064,8.05990909 0,8.48081818 0,9 C0,9.51922727 0.413714064,9.94009091 0.924020979,9.94009091 L21.9508819,9.94009091 C22.4612335,9.94009091 22.8749029,9.51922727 22.8749029,9 C22.8749029,8.48081818 22.4612335,8.05990909 21.9508819,8.05990909 Z" id="Path"></path>
            <path d="M2.23083916,9 L9.46248057,1.64254545 C9.8233411,1.27540909 9.8233411,0.680181818 9.46248057,0.313045455 C9.10162005,-0.0540454545 8.5165676,-0.0540454545 8.15570707,0.313045455 L0.270656566,8.33522727 C-0.0902039627,8.70236364 -0.0902039627,9.29759091 0.270656566,9.66472727 L8.15570707,17.6869091 C8.336115,17.8705 8.57263792,17.9622727 8.80911616,17.9622727 C9.04559441,17.9622727 9.28211733,17.8705 9.46252525,17.6869091 C9.82338578,17.3197727 9.82338578,16.7245455 9.46252525,16.3574091 L2.23083916,9 Z" id="Path"></path>
        </g>
        <text id="Terms-of-Use" font-family="Avenir-Medium, Avenir" font-size="15" font-weight="400" fill="#FFFFFF">
            <tspan x="47" y="39">Terms of Use</tspan>
        </text>
        <text id="Lorem-Ipsum-is-simpl" font-family="Avenir-Medium, Avenir" font-size="14" font-weight="400" line-spacing="22" fill="#FFFFFF" fill-opacity="0.681763549">
            <tspan x="14" y="96">Lorem Ipsum is simply dummy text of the printing </tspan>
            <tspan x="14" y="118">and typesetting industry. Lorem Ipsum has been the </tspan>
            <tspan x="14" y="140">industry's standard dummy text ever since the </tspan>
            <tspan x="14" y="162">1500s, when an unknown printer took a galley of </tspan>
            <tspan x="14" y="184">type and scrambled it to make a type specimen </tspan>
            <tspan x="14" y="206">book. It has survived not only five centuries, but </tspan>
            <tspan x="14" y="228">also the leap into electronic typesetting, remaining </tspan>
            <tspan x="14" y="250">essentially unchanged. It was popularised in the </tspan>
            <tspan x="14" y="272">1960s with the release of Letraset sheets containing </tspan>
            <tspan x="14" y="294">Lorem Ipsum passages, and more recently with </tspan>
            <tspan x="14" y="316">desktop publishing software like Aldus PageMaker </tspan>
            <tspan x="14" y="338">including versions of Lorem Ipsum.</tspan>
        </text>
    </g>
</svg>