<?xml version="1.0" encoding="UTF-8"?>
<svg width="360px" height="585px" viewBox="0 0 360 585" version="1.1" xmlns="http://www.w3.org/2000/svg" xmlns:xlink="http://www.w3.org/1999/xlink">
    <!-- Generator: Sketch 55.2 (78181) - https://sketchapp.com -->
    <title>Thankyou</title>
    <desc>Created with Sketch.</desc>
    <defs>
        <linearGradient x1="50%" y1="0%" x2="50%" y2="74.0366343%" id="linearGradient-1">
            <stop stop-color="#000000" stop-opacity="0" offset="0%"></stop>
            <stop stop-color="#292A2C" offset="100%"></stop>
        </linearGradient>
        <linearGradient x1="50%" y1="0%" x2="50%" y2="100%" id="linearGradient-2">
            <stop stop-color="#000000" stop-opacity="0.93236451" offset="0%"></stop>
            <stop stop-color="#333333" offset="100%"></stop>
        </linearGradient>
        <linearGradient x1="50%" y1="0%" x2="50%" y2="100%" id="linearGradient-3">
            <stop stop-color="#FEF2BF" offset="0%"></stop>
            <stop stop-color="#D5A842" offset="100%"></stop>
        </linearGradient>
        <text id="text-4" font-family="Avenir-Heavy, Avenir" font-size="15" font-weight="600" fill="#000000">
            <tspan x="124.805" y="353">Order Summary</tspan>
        </text>
        <filter x="-1.2%" y="-5.0%" width="102.4%" height="120.0%" filterUnits="objectBoundingBox" id="filter-5">
            <feOffset dx="0" dy="1" in="SourceAlpha" result="shadowOffsetOuter1"></feOffset>
            <feGaussianBlur stdDeviation="0.5" in="shadowOffsetOuter1" result="shadowBlurOuter1"></feGaussianBlur>
            <feColorMatrix values="0 0 0 0 1   0 0 0 0 1   0 0 0 0 1  0 0 0 0.294662369 0" type="matrix" in="shadowBlurOuter1"></feColorMatrix>
        </filter>
        <polygon id="path-6" points="0 0.0500470539 59.6741533 0.0500470539 59.6741533 65.296999 0 65.296999"></polygon>
        <polygon id="path-8" points="0 86 85 86 85 0 0 0"></polygon>
        <rect id="path-10" x="0" y="0" width="360" height="58"></rect>
        <filter x="-4.0%" y="-21.6%" width="108.1%" height="150.0%" filterUnits="objectBoundingBox" id="filter-11">
            <feOffset dx="0" dy="2" in="SourceAlpha" result="shadowOffsetOuter1"></feOffset>
            <feGaussianBlur stdDeviation="4.5" in="shadowOffsetOuter1" result="shadowBlurOuter1"></feGaussianBlur>
            <feColorMatrix values="0 0 0 0 0   0 0 0 0 0   0 0 0 0 0  0 0 0 1 0" type="matrix" in="shadowBlurOuter1"></feColorMatrix>
        </filter>
    </defs>
    <g id="Thankyou" stroke="none" stroke-width="1" fill="none" fill-rule="evenodd">
        <g id="Header">
            <rect id="Rectangle-Copy" fill="url(#linearGradient-1)" x="0" y="0" width="360" height="586"></rect>
            <rect id="Rectangle-Copy" fill="url(#linearGradient-2)" x="0" y="0" width="360" height="586"></rect>
            <g id="status-bar" transform="translate(265.000000, 1.000000)">
                <g id="Material/Android/Status-bar-content-light" transform="translate(6.000000, 0.784306)">
                    <g id="time" opacity="0.9" transform="translate(54.000000, 2.000000)" fill="#FFFFFF" font-family="Roboto-Medium, Roboto" font-size="11" font-weight="400">
                        <text id="12:30">
                            <tspan x="0.0756835938" y="10">12:30</tspan>
                        </text>
                    </g>
                    <g id="battery" transform="translate(38.000000, 3.000000)">
                        <polygon id="bounds" points="0 0 11 0 11 11 0 11"></polygon>
                        <polygon id="Shape" fill="#FFFFFF" points="6.1875 1.2890625 6.1875 0.6875 4.125 0.6875 4.125 1.2890625 2.0625 1.2890625 2.0625 10.3125 8.25 10.3125 8.25 1.2890625"></polygon>
                    </g>
                    <g id="cellular" transform="translate(23.000000, 3.000000)">
                        <polygon id="bounds" points="0 0 11 0 11 11 0 11"></polygon>
                        <polygon id="Shape" fill="#FFFFFF" points="0 10.3125 9.625 10.3125 9.625 0.6875"></polygon>
                    </g>
                    <g id="wifi" transform="translate(5.000000, 3.000000)">
                        <polygon id="bounds" points="1.4 0 12.6 0 12.6 11 1.4 11"></polygon>
                        <path d="M0.68416046,2.76095272 C2.44175336,1.45926262 4.62911059,0.6875 7,0.6875 C9.37088941,0.6875 11.5582466,1.45926262 13.3158395,2.76095272 L7,10.3125 L0.68416046,2.76095272 Z" id="Shape" fill="#FFFFFF"></path>
                    </g>
                </g>
            </g>
        </g>
        <rect id="Rectangle" fill="url(#linearGradient-3)" x="38" y="330" width="285" height="37" rx="5"></rect>
        <g id="Order-Summary" fill="#000000" fill-opacity="1">
            <use filter="url(#filter-5)" xlink:href="#text-4"></use>
            <use xlink:href="#text-4"></use>
        </g>
        <g id="Group-35" transform="translate(138.000000, 98.000000)">
            <g id="Group-3" transform="translate(0.000000, 21.000000)">
                <mask id="mask-7" fill="white">
                    <use xlink:href="#path-6"></use>
                </mask>
                <g id="Clip-2"></g>
                <path d="M58.4345448,33.4563371 C58.1671278,32.7163598 57.34881,32.3327536 56.6068972,32.5995869 C55.8646273,32.8662422 55.4801036,33.6822287 55.7475207,34.42185 C55.7541258,34.4400067 55.761088,34.4579855 55.7684071,34.4761423 C57.0708605,37.8654056 57.165117,40.4570173 56.0254703,41.5964434 C54.6430417,42.9719076 51.1998235,42.5418414 46.8126122,40.4484729 C40.9390759,37.4073923 35.6001954,33.4346202 31.0046558,28.6857353 C19.8181238,17.5296475 15.202412,6.58289644 18.0572412,3.73620003 C18.9682088,3.01882969 20.152306,2.74327403 21.2876683,2.98429623 C22.0742101,3.04197067 22.7588193,2.45276575 22.8166585,1.66846457 C22.8725341,0.910330505 22.3214549,0.24209024 21.5647252,0.150416362 C19.5790908,-0.199902455 17.5418652,0.377375962 16.0378672,1.71688262 C10.8052037,6.93339327 18.8041525,20.5401108 28.9852818,30.6936603 C33.808965,35.6711068 39.414013,39.8313208 45.5801371,43.0103573 C46.6967552,43.5434898 47.8474699,44.0025712 49.0247835,44.3847534 L38.8779292,48.2209937 C25.3285584,43.0844084 15.574618,31.1066377 13.3144258,16.8290098 C13.1921423,16.052007 12.4612975,15.5208325 11.6820748,15.6427677 C10.902852,15.7647028 10.37016,16.4934656 10.4924436,17.2704685 C10.7166598,18.6945287 11.0165668,20.118589 11.3835959,21.5113199 C14.6722192,33.9360674 23.3339981,44.258012 35.0191255,49.6763832 L18.3185887,55.9780278 C18.2420053,55.8505744 18.1456066,55.7361155 18.032963,55.6389234 C13.7885646,52.2409377 11.1254616,47.2576169 10.663819,41.8497482 L10.0011673,33.8479537 C9.9490406,33.0729089 9.27639199,32.4865521 8.49877593,32.5383523 C8.48395909,32.5395984 8.46914226,32.5404884 8.45450394,32.5420905 C7.6683191,32.6043931 7.08153673,33.2906121 7.14401736,34.0747353 C7.14419587,34.0777614 7.1445529,34.0813216 7.14490994,34.0843477 L7.81898667,42.083294 C8.3209739,47.8639105 11.0251356,53.2326176 15.3752155,57.0857686 L3.46176607,61.5829508 L5.60395909,52.816614 C5.79086543,52.0518937 5.3210111,51.2812991 4.55428451,51.0947472 C3.78755792,50.9083733 3.01458328,51.3768891 2.82767694,52.1414315 L0.0413978801,63.5339134 C-0.146401041,64.2977437 0.322382198,65.0688723 1.08857323,65.2561362 C1.36955755,65.3246691 1.66464464,65.3066903 1.93509651,65.204514 L54.7758577,45.2676707 C54.8599388,45.226551 54.9393784,45.1768869 55.012927,45.1195685 C56.1565011,44.9442311 57.2167081,44.4169727 58.0448442,43.6113107 C59.4599412,42.200067 60.678135,39.2907119 58.4345448,33.4563371" id="Fill-1" fill="#FFFFFF" mask="url(#mask-7)"></path>
            </g>
            <path d="M71.0822919,50.1141876 C63.4573113,47.0993611 55.2159426,46.2538911 47.1842094,47.6634422 L42.1444969,48.5573311 C41.3794776,48.7126443 40.8785742,49.4934935 41.0256187,50.3015319 C41.1677264,51.0821948 41.8650418,51.607727 42.6099615,51.495246 L47.6482635,50.6088062 C55.1912589,49.2841745 62.9315478,50.0786183 70.0921217,52.9120599 C70.2509791,52.9714663 70.4186522,53.0012626 70.5872068,53 C71.3661548,53.0012626 71.9987635,52.3355016 72,51.5125651 C72.0010556,50.8896363 71.6350311,50.3318868 71.0822919,50.1141876" id="Fill-4" fill="#FFFFFF"></path>
            <path d="M76.8602507,27.808013 C76.5196805,27.1014993 75.6633229,26.8015409 74.9479281,27.137976 L44.8184905,41.3036639 C44.1030957,41.6399219 43.7989318,42.4850823 44.1396814,43.1915959 C44.1396814,43.191773 44.1398608,43.1919501 44.1398608,43.1919501 C44.4802517,43.8982867 45.3364299,44.1984222 46.052004,43.8621642 C46.0521833,43.8621642 46.0521833,43.8619871 46.0523627,43.8619871 L76.1818003,29.6962992 C76.8971951,29.3598641 77.2010003,28.5145267 76.8602507,27.808013" id="Fill-6" fill="#FFFFFF"></path>
            <path d="M33.9842434,9.14870618 C33.8298208,8.37260609 33.0887681,7.87127769 32.3289389,8.02900704 C31.5691098,8.18673639 31.0782918,8.94365803 31.2327143,9.71975812 C31.2360484,9.73696496 31.239909,9.75399256 31.243945,9.77102016 C33.0208572,17.8795634 32.2885785,26.3517803 29.1480099,34.016889 L27.1068246,39.0197772 C26.8118424,39.7487377 27.1485888,40.5841655 27.8606874,40.8895869 C28.0312541,40.9628952 28.2146309,41.0003559 28.3997625,41 C28.9663879,41 29.4773862,40.6522759 29.695508,40.118147 L31.7380972,35.1209944 C35.1029294,26.9102856 35.8878522,17.8347539 33.9842434,9.14870618" id="Fill-8" fill="#FFFFFF"></path>
            <path d="M78,57.3333333 C77.2636667,57.3333333 76.6666667,56.7363333 76.6666667,56 C76.6666667,55.2636667 77.2636667,54.6666667 78,54.6666667 C78.7363333,54.6666667 79.3333333,55.2636667 79.3333333,56 C79.3333333,56.7363333 78.7363333,57.3333333 78,57.3333333 M78,52 C75.7906667,52 74,53.7908333 74,56 C74,58.2091667 75.7906667,60 78,60 C80.2091667,60 82,58.2091667 82,56 C82,53.7908333 80.2091667,52 78,52" id="Fill-10" fill="#FFFFFF"></path>
            <path d="M44,17.3333333 C43.2635,17.3333333 42.6666667,16.7363333 42.6666667,16 C42.6666667,15.2636667 43.2635,14.6666667 44,14.6666667 C44.7363333,14.6666667 45.3333333,15.2636667 45.3333333,16 C45.3333333,16.7363333 44.7363333,17.3333333 44,17.3333333 M44,12 C41.7908333,12 40,13.7908333 40,16 C40,18.2091667 41.7908333,20 44,20 C46.2091667,20 48,18.2091667 48,16 C48,13.7908333 46.2091667,12 44,12" id="Fill-12" fill="#FFFFFF"></path>
            <path d="M31,0 C32.65675,0 34,1.34325 34,3 C34,4.65675 32.65675,6 31,6 C29.34325,6 28,4.65675 28,3 C28,1.34325 29.34325,0 31,0" id="Fill-14" fill="#FFFFFF"></path>
            <path d="M71,7 C70.44775,7 70,7.597 70,8.33333333 L70,9.66666667 C70,10.403 70.44775,11 71,11 C71.55225,11 72,10.403 72,9.66666667 L72,8.33333333 C72,7.597 71.55225,7 71,7" id="Fill-16" fill="#FFFFFF"></path>
            <path d="M71,0 C70.44775,0 70,0.597 70,1.33333333 L70,2.66666667 C70,3.403 70.44775,4 71,4 C71.55225,4 72,3.403 72,2.66666667 L72,1.33333333 C72,0.597 71.55225,0 71,0" id="Fill-18" fill="#FFFFFF"></path>
            <path d="M74.6666667,4 L73.3333333,4 C72.597,4 72,4.44775 72,5 C72,5.55225 72.597,6 73.3333333,6 L74.6666667,6 C75.403,6 76,5.55225 76,5 C76,4.44775 75.403,4 74.6666667,4" id="Fill-20" fill="#FFFFFF"></path>
            <path d="M67.6666667,4 L66.3333333,4 C65.597,4 65,4.44775 65,5 C65,5.55225 65.597,6 66.3333333,6 L67.6666667,6 C68.403,6 69,5.55225 69,5 C69,4.44775 68.403,4 67.6666667,4" id="Fill-22" fill="#FFFFFF"></path>
            <mask id="mask-9" fill="white">
                <use xlink:href="#path-8"></use>
            </mask>
            <g id="Clip-25"></g>
            <path d="M54.8485971,23.1514029 L59.1514029,23.1514029 L59.1514029,18.8485971 L54.8485971,18.8485971 L54.8485971,23.1514029 Z M60.5757015,16 L53.4242985,16 C52.6375516,16 52,16.6377297 52,17.4242985 L52,24.5757015 C52,25.3622703 52.6375516,26 53.4242985,26 L60.5757015,26 C61.3622703,26 62,25.3622703 62,24.5757015 L62,17.4242985 C62,16.6377297 61.3622703,16 60.5757015,16 L60.5757015,16 Z" id="Fill-24" fill="#FFFFFF" mask="url(#mask-9)"></path>
            <path d="M50.6167274,27.4607003 C50.0958085,26.8900043 49.2293244,26.843402 48.6534413,27.355117 L34.4691295,40.4620124 C33.8872181,41.0001232 33.8402326,41.9207006 34.3641656,42.5183386 C34.8882759,43.1157946 35.7849018,43.1640353 36.3669905,42.6261064 L50.5513022,29.5192111 C51.12293,28.9692676 51.1523625,28.04778 50.6167274,27.4607003" id="Fill-26" fill="#FFFFFF" mask="url(#mask-9)"></path>
            <path d="M76,33 C75.44775,33 75,33.597 75,34.3333333 L75,35.6666667 C75,36.403 75.44775,37 76,37 C76.55225,37 77,36.403 77,35.6666667 L77,34.3333333 C77,33.597 76.55225,33 76,33" id="Fill-27" fill="#FFFFFF" mask="url(#mask-9)"></path>
            <path d="M82.5813092,32.4728901 L81.5270565,31.4186703 C80.9346917,30.8464541 79.9909715,30.8628564 79.418551,31.4552027 C78.860483,32.0330105 78.860483,32.9491156 79.418551,33.5271099 L80.4728037,34.5813297 C81.0651685,35.1535459 82.0090751,35.1371436 82.5813092,34.5447973 C83.1395636,33.9668031 83.1395636,33.050698 82.5813092,32.4728901" id="Fill-28" fill="#FFFFFF" mask="url(#mask-9)"></path>
            <path d="M83.6666667,27 L82.3333333,27 C81.597,27 81,27.44775 81,28 C81,28.55225 81.597,29 82.3333333,29 L83.6666667,29 C84.403,29 85,28.55225 85,28 C85,27.44775 84.403,27 83.6666667,27" id="Fill-29" fill="#FFFFFF" mask="url(#mask-9)"></path>
            <path d="M82.5467021,22.4166531 C81.9714885,21.8611156 81.0594966,21.8611156 80.484283,22.4166531 L79.4347965,23.4661255 C78.8549441,24.0459701 78.8551297,24.9857822 79.4349821,25.5654413 C79.7133112,25.8435811 80.0909111,26 80.484283,26 C80.878026,26 81.2552548,25.8433956 81.5335839,25.5650702 L82.5830704,24.5155978 C83.152903,23.9259191 83.1365743,22.9861069 82.5467021,22.4166531" id="Fill-30" fill="#FFFFFF" mask="url(#mask-9)"></path>
            <path d="M76,21 C75.44775,21 75,21.597 75,22.3333333 L75,23.6666667 C75,24.403 75.44775,25 76,25 C76.55225,25 77,24.403 77,23.6666667 L77,22.3333333 C77,21.597 76.55225,21 76,21" id="Fill-31" fill="#FFFFFF" mask="url(#mask-9)"></path>
            <path d="M73.5813092,23.472845 L72.5270565,22.4186063 C71.9346917,21.8465663 70.9909715,21.8627825 70.418551,22.4551394 C69.860483,23.0329576 69.860483,23.949079 70.418551,24.5270836 L71.4728037,25.5813222 C72.0651685,26.1535486 73.0090751,26.1371461 73.5813092,25.5447892 C74.1395636,24.9667846 74.1395636,24.0506632 73.5813092,23.472845" id="Fill-32" fill="#FFFFFF" mask="url(#mask-9)"></path>
            <path d="M11.0501945,8.79998718 C10.7166173,9.11993151 10.5641704,9.58093031 10.642253,10.0330369 L10.9935359,12.048599 L9.15921571,11.0959146 C8.74684778,10.8826766 8.25427261,10.8826766 7.84190468,11.0959146 L6.00050216,12.0472042 L6.3517851,10.0316421 C6.43128411,9.58127902 6.2814931,9.12097765 5.95092593,8.79998718 L4.46222282,7.37305292 L6.51751133,7.07873901 C6.9789243,7.01283222 7.37783583,6.72741049 7.58410833,6.3157546 L8.5005602,4.48431307 L9.41842853,6.3157546 C9.62452397,6.72706178 10.0227273,7.01230915 10.4836091,7.07873901 L12.5374811,7.37305292 L11.0501945,8.79998718 Z M16.9299344,5.96843629 C16.7631458,5.46384835 16.3199698,5.09630467 15.7868483,5.01993649 L11.629528,4.42433441 L9.77537733,0.715421199 C9.36212411,0.0244460651 8.45824335,-0.205878979 7.75656275,0.201069282 C7.54090619,0.326082952 7.36119239,0.503054882 7.23424185,0.715421199 L5.37159237,4.42433441 L1.21427206,5.01993649 C0.439997714,5.12995549 -0.0970190022,5.83732014 0.0147045547,6.59978148 C0.0591460963,6.90333628 0.203979487,7.18387602 0.426718369,7.39816026 L3.43387033,10.2855053 L2.72563859,14.3626596 C2.5896581,15.1212851 3.10383434,15.8448649 3.87421342,15.9787707 C4.18441892,16.0326469 4.50383143,15.983304 4.78234356,15.8384137 L8.5005602,13.9079376 L12.2187768,15.8328343 C12.9112504,16.1913114 13.7676796,15.9292535 14.1317108,15.2473449 C14.2767212,14.9758717 14.3266515,14.6649939 14.2740653,14.3626596 L13.5658336,10.2855053 L16.574402,7.39816026 C16.959503,7.0269551 17.0972541,6.47284988 16.9299344,5.96843629 L16.9299344,5.96843629 Z" id="Fill-33" fill="#FFFFFF" mask="url(#mask-9)"></path>
            <path d="M77.6183913,78.4904682 C76.8677411,79.9110826 75.1567157,80.4270353 73.7967555,79.6430075 C72.4367953,78.8589796 71.9426319,77.0718736 72.6932821,75.6514428 C72.6975012,75.6435474 72.7017204,75.6354685 72.7061153,75.6275731 C73.5358738,74.208244 74.9357398,73.2567611 76.5143906,73.0393632 C76.7589232,73.0322023 77.0009947,73.0911421 77.2175758,73.2097561 C78.4047282,73.9016102 78.4678391,76.9011134 77.6183913,78.4904682 M80.3115907,71.4602907 L80.3059652,71.4602907 L79.7265406,70.5525077 C76.4778249,65.4779931 71.3688328,62.0275361 65.6051752,61.01491 C64.8362422,60.9003355 64.1239156,61.4585192 64.0142187,62.2616428 C63.9083893,63.0375917 64.4041349,63.7637814 65.141073,63.9115899 C69.2983039,64.6486128 73.0870658,66.8545403 75.8730857,70.1603101 C73.5305999,70.6004307 71.4818698,72.0698861 70.247604,74.1953911 C68.732943,77.0287245 69.7042176,80.6078942 72.4169303,82.1897208 C75.1296431,83.7719147 78.5564404,82.7574525 80.0711014,79.9241191 C80.649647,78.7576252 80.9622128,77.4670089 80.9840116,76.1532573 C82.4802139,78.4234494 82.5999312,81.3878825 81.2918309,83.7814626 C80.8957618,84.4791923 81.1160346,85.3803653 81.7838847,85.7942291 C82.4519107,86.208093 83.3147189,85.9780258 83.7109638,85.2802961 C83.7236211,85.2577117 83.7357511,85.2353109 83.7473536,85.2121757 C86.3225937,80.4081232 84.8056474,74.3376912 80.3115907,71.4602907" id="Fill-34" fill="#FFFFFF" mask="url(#mask-9)"></path>
        </g>
        <text id="Thank-You-for-Paymen" font-family="Avenir-Heavy, Avenir" font-size="18" font-weight="600" fill="#FFFFFF">
            <tspan x="83.021" y="227">Thank You for Payment</tspan>
        </text>
        <text id="Your-OrderID-is-pay_" font-family="Avenir-Roman, Avenir" font-size="16" font-weight="normal" line-spacing="26" fill="#FFFFFF">
            <tspan x="125.84" y="265">Your OrderID is</tspan>
            <tspan x="94.708" y="291" font-family="Avenir-Medium, Avenir" font-weight="400" letter-spacing="0.5">pay_BsH11khHfp0W9f</tspan>
        </text>
        <g id="Footer" transform="translate(0.000000, 527.000000)">
            <g id="Group">
                <g id="Rectangle">
                    <use fill="black" fill-opacity="1" filter="url(#filter-11)" xlink:href="#path-10"></use>
                    <use fill="#000000" fill-rule="evenodd" xlink:href="#path-10"></use>
                </g>
                <text id="Home" fill="#FFFFFF" font-family="Avenir-Roman, Avenir" font-size="12" font-weight="normal">
                    <tspan x="16" y="43">Home</tspan>
                </text>
                <text id="Profile" font-family="Avenir-Roman, Avenir" font-size="12" font-weight="normal" fill="#FFFFFF">
                    <tspan x="91" y="43">Profile</tspan>
                </text>
                <g id="user" transform="translate(102.000000, 11.000000)" fill="#FFFFFF" fill-rule="nonzero">
                    <path d="M12.9684968,12.3032227 C12.9474551,11.9914551 12.904896,11.6513672 12.8422463,11.2922363 C12.7790022,10.9304199 12.6975694,10.5883789 12.6000878,10.2757568 C12.4992776,9.95263672 12.3624468,9.63354494 12.1930428,9.32775878 C12.0174571,9.01037597 11.8110814,8.73400878 11.5795033,8.50659181 C11.3373448,8.26867675 11.0408581,8.07739256 10.6980083,7.93786622 C10.3563473,7.79907225 9.9777146,7.72875975 9.57269054,7.72875975 C9.41362913,7.72875975 9.25979846,7.79577637 8.96271742,7.99438475 C8.77988004,8.11682128 8.56601497,8.25842284 8.32730399,8.41503906 C8.1231871,8.548584 7.84667228,8.67370606 7.50513014,8.78698731 C7.17190958,8.89770506 6.83357721,8.95385744 6.49952448,8.95385744 C6.16570953,8.95385744 5.82737716,8.89770506 5.49391885,8.78698731 C5.15273333,8.67382812 4.87609964,8.54870606 4.67233939,8.41516112 C4.43588711,8.26000975 4.22190317,8.11840819 4.03633154,7.99426269 C3.73948827,7.79565431 3.58565758,7.72863769 3.4265962,7.72863769 C3.02145327,7.72863769 2.64293945,7.79907225 2.30139731,7.93798828 C1.95878522,8.0772705 1.66217973,8.26855469 1.41978346,8.50671387 C1.18820529,8.73425294 0.981829663,9.01049806 0.80636283,9.32775878 C0.637196628,9.63354494 0.500246905,9.95251466 0.399436692,10.2758789 C0.302073991,10.588501 0.220641221,10.9304199 0.157397078,11.2922363 C0.0946284545,11.6508789 0.0521883135,11.9910889 0.0311465668,12.3035889 C0.0104614372,12.6091309 0,12.927124 0,13.2484131 C0,14.0836182 0.258563938,14.7597656 0.768440113,15.2584228 C1.27201566,15.7504883 1.938219,16 2.74862373,16 L10.2513763,16 C11.0615433,16 11.7277466,15.7504883 12.231441,15.2584228 C12.7414361,14.7601318 13,14.0837402 13,13.248291 C13,12.9259033 12.9893008,12.6079102 12.9684968,12.3032227 L12.9684968,12.3032227 Z M11.6018527,14.5791016 C11.2691077,14.9042969 10.8273497,15.0623779 10.2512574,15.0623779 L2.74862373,15.0623779 C2.17241252,15.0623779 1.73065459,14.9042969 1.39802842,14.5792236 C1.07170292,14.2602539 0.913117026,13.8248291 0.913117026,13.2484131 C0.913117026,12.9486084 0.922746296,12.6525879 0.942004866,12.3684082 C0.960787886,12.0895996 0.999186123,11.7833252 1.05612964,11.4578857 C1.11235985,11.1364746 1.18392561,10.8348389 1.26904367,10.5617676 C1.35071418,10.2999267 1.46210473,10.0406494 1.60024324,9.79089356 C1.73208112,9.55285644 1.88377199,9.34863281 2.05115498,9.18408203 C2.20771989,9.03015137 2.40506064,8.90417481 2.63758986,8.80969237 C2.85264371,8.72229003 3.09432668,8.67443847 3.35669478,8.66723631 C3.38867348,8.68469237 3.44561699,8.71801756 3.53786785,8.77978516 C3.72557932,8.9053955 3.94194086,9.04870606 4.18112736,9.20556641 C4.45074713,9.38208006 4.79811438,9.54150391 5.21312435,9.67907716 C5.63740695,9.81994628 6.07013004,9.8914795 6.49964335,9.8914795 C6.9291567,9.8914795 7.36199866,9.81994628 7.78604351,9.67919922 C8.2014101,9.54138184 8.54865851,9.38208006 8.81863489,9.20532225 C9.06340876,9.04467775 9.27370741,8.90551756 9.46141889,8.77978516 C9.55366974,8.71813966 9.61061326,8.68469237 9.64259196,8.66723631 C9.90507893,8.67443847 10.1467619,8.72229003 10.3619347,8.80969237 C10.594345,8.90417481 10.7916857,9.03027344 10.9482507,9.18408203 C11.1156337,9.34851075 11.2673245,9.55273437 11.3991624,9.79101562 C11.5374198,10.0406494 11.6489292,10.3000488 11.7304808,10.5616455 C11.8157178,10.835083 11.8874024,11.1365967 11.9435137,11.4577637 C12.0003384,11.7838135 12.0388555,12.09021 12.0576385,12.3685303 L12.0576385,12.3687744 C12.077016,12.6518555 12.0867641,12.9477539 12.086883,13.2484131 C12.0867641,13.8249512 11.9281782,14.2602539 11.6018527,14.5791016 Z M6.40168626,7.70727537 C5.37075918,7.70727537 4.47797063,7.32739256 3.7481665,6.57836912 C3.01860015,5.82922363 2.64864569,4.91247559 2.64864569,3.85351562 C2.64864569,2.79479981 3.01860015,1.87805175 3.7481665,1.12890625 C4.47773286,0.37976075 5.37040256,0 6.40168626,0 C7.43273224,0 8.32552079,0.37976075 9.05520605,1.12878419 C9.78489127,1.87817381 10.1547269,2.79492187 10.1547269,3.85351562 C10.1547269,4.91247559 9.7847724,5.82910156 9.05532492,6.57824706 C8.32563966,7.32751466 7.43285112,7.70727537 6.40168626,7.70727537 Z M4.39392249,1.79187012 C3.83399785,2.36682128 3.56176271,3.04125975 3.56176271,3.85351562 C3.56176271,4.66601562 3.83399785,5.34045409 4.39392249,5.91528319 C4.95396602,6.49011231 5.61065897,6.76965331 6.40168626,6.76965331 C7.19283245,6.76965331 7.8496443,6.49023437 8.40956893,5.91528319 C8.96937469,5.34033203 9.24160984,4.66601562 9.24160984,3.85351562 C9.24160984,3.04125975 8.96937469,2.36682128 8.40956893,1.79187012 C7.8496443,1.217041 7.19283245,0.937622063 6.40168626,0.937622063 C5.61042119,0.937622063 4.95372828,1.217041 4.39392249,1.79187012 Z" id="Shape"></path>
                </g>
                <text id="My-Order" font-family="Avenir-Roman, Avenir" font-size="12" font-weight="normal" fill="#FFFFFF">
                    <tspan x="232" y="43">My Order</tspan>
                </text>
                <text id="Chat" font-family="Avenir-Roman, Avenir" font-size="12" font-weight="normal" fill="#FFFFFF">
                    <tspan x="319" y="43">Chat</tspan>
                </text>
                <text id="More" font-family="Avenir-Roman, Avenir" font-size="12" font-weight="normal" fill="#FFFFFF">
                    <tspan x="167" y="43">More</tspan>
                </text>
                <g id="home" transform="translate(24.000000, 11.000000)" fill="#FFFFFF" fill-rule="nonzero">
                    <path d="M17.731179,6.32537991 L9.25271616,0.117624454 C9.08922271,-0.00206113537 8.86710917,-0.00206113537 8.70368559,0.117624454 L0.225152838,6.32537991 C0.0180611354,6.47703057 -0.0269344978,6.76782533 0.124716157,6.97491703 C0.276366812,7.18200873 0.567196507,7.2269345 0.774253275,7.07535371 L8.97816594,1.06857642 L17.1820786,7.07531878 C17.2648035,7.13593013 17.3609432,7.16512538 17.4562445,7.16512538 C17.5993362,7.16512538 17.7405415,7.09924891 17.8315808,6.9748821 C17.9832664,6.76782533 17.9382707,6.47703057 17.731179,6.32537991 Z" id="Path"></path>
                    <path d="M15.4845764,7.18054148 C15.2279476,7.18054148 15.0198428,7.38861135 15.0198428,7.64527511 L15.0198428,15.0426201 L11.3020437,15.0426201 L11.3020437,11.0046812 C11.3020437,9.72328384 10.2595284,8.68083843 8.97820087,8.68083843 C7.69687336,8.68083843 6.65435808,9.72335371 6.65435808,11.0046812 L6.65435808,15.042655 L2.93652402,15.042655 L2.93652402,7.64531004 C2.93652402,7.38864629 2.72841921,7.18054148 2.47179039,7.18054148 C2.21516157,7.18054148 2.00705677,7.38864629 2.00705677,7.64531004 L2.00705677,15.5074236 C2.00705677,15.7640873 2.21516157,15.9721572 2.47179039,15.9721572 L7.1190917,15.9721572 C7.36349345,15.9721572 7.56349345,15.7833362 7.58200873,15.5436157 C7.58312664,15.5327511 7.58382533,15.5208734 7.58382533,15.5074236 L7.58382533,11.0047162 C7.58382533,10.2358428 8.20932751,9.61034061 8.97820087,9.61034061 C9.74707424,9.61034061 10.3725764,10.2358777 10.3725764,11.0047162 L10.3725764,15.5074236 C10.3725764,15.5208035 10.3732751,15.5324716 10.374393,15.5431965 C10.3926987,15.7830917 10.5927686,15.9721572 10.83731,15.9721572 L15.4846114,15.9721572 C15.7412751,15.9721572 15.949345,15.7640873 15.949345,15.5074236 L15.949345,7.64531004 C15.949345,7.38861135 15.7412402,7.18054148 15.4845764,7.18054148 Z" id="Path"></path>
                </g>
                <g id="more" transform="translate(169.000000, 16.000000)" fill="#FFFFFF" fill-rule="nonzero">
                    <path d="M15,3 C15,1.34621849 13.6537815,0 12,0 C10.3462185,0 9,1.34621849 9,3 C9,4.65378151 10.3462185,6 12,6 C13.6537815,6 15,4.65378151 15,3 Z M12,4.76470588 C11.0268908,4.76470588 10.2352941,3.97310924 10.2352941,3 C10.2352941,2.02689076 11.0268908,1.23529412 12,1.23529412 C12.9731092,1.23529412 13.7647059,2.02689076 13.7647059,3 C13.7647059,3.97310924 12.9731092,4.76470588 12,4.76470588 Z" id="Shape"></path>
                    <path d="M3,0 C1.34621849,0 0,1.34621849 0,3 C0,4.65378151 1.34621849,6 3,6 C4.65378151,6 6,4.65378151 6,3 C6,1.34621849 4.65378151,0 3,0 Z M3,4.76470588 C2.02689076,4.76470588 1.23529412,3.97310924 1.23529412,3 C1.23529412,2.02689076 2.02689076,1.23529412 3,1.23529412 C3.97310924,1.23529412 4.76470588,2.02689076 4.76470588,3 C4.76470588,3.97310924 3.97310924,4.76470588 3,4.76470588 Z" id="Shape"></path>
                    <path d="M21,0 C19.3462185,0 18,1.34621849 18,3 C18,4.65378151 19.3462185,6 21,6 C22.6537815,6 24,4.65378151 24,3 C24,1.34621849 22.6537815,0 21,0 Z M21,4.76470588 C20.0268908,4.76470588 19.2352941,3.97310924 19.2352941,3 C19.2352941,2.02689076 20.0268908,1.23529412 21,1.23529412 C21.9731092,1.23529412 22.7647059,2.02689076 22.7647059,3 C22.7647059,3.97310924 21.9731092,4.76470588 21,4.76470588 Z" id="Shape"></path>
                </g>
                <g id="shopping-bag" transform="translate(252.000000, 11.000000)" fill="#FFFFFF" fill-rule="nonzero">
                    <path d="M13.9950079,15.6014944 L12.8435663,4.46326276 C12.8243756,4.28393524 12.6708501,4.14445828 12.4981338,4.14445828 L10.3679668,4.14445828 L10.3679668,3.46699875 C10.3679668,1.55417186 8.87109266,0 7.02878604,0 C5.18647942,0 3.6896053,1.55417186 3.6896053,3.46699875 L3.6896053,4.14445828 L1.50186619,4.14445828 C1.32914995,4.14445828 1.1756244,4.28393524 1.1564337,4.46326276 L0.00499206732,15.6014944 C-0.0141986266,15.7011208 0.0241827612,15.8007472 0.081754843,15.8804483 C0.139326925,15.9601494 0.235280394,16 0.331233864,16 L13.6687661,16 C13.7647196,16 13.8606731,15.9601494 13.9182452,15.8804483 C13.9758172,15.8007472 14.0141986,15.7011208 13.9950079,15.6014944 Z M10.0225343,6.15691158 C10.1952505,6.15691158 10.3295854,6.29638854 10.3295854,6.47571606 C10.3295854,6.65504359 10.1952505,6.79452055 10.0225343,6.79452055 C9.84981805,6.79452055 9.71548319,6.65504359 9.71548319,6.47571606 C9.71548319,6.29638854 9.84981805,6.15691158 10.0225343,6.15691158 Z M4.38047028,3.46699875 C4.38047028,1.95267746 5.5702933,0.717310087 7.02878604,0.717310087 C8.48727878,0.717310087 9.6771018,1.95267746 9.6771018,3.46699875 L9.6771018,4.14445828 L4.38047028,4.14445828 L4.38047028,3.46699875 Z M4.03503779,6.15691158 C4.20775404,6.15691158 4.34208889,6.29638854 4.34208889,6.47571606 C4.34208889,6.65504359 4.20775404,6.79452055 4.03503779,6.79452055 C3.86232154,6.79452055 3.72798669,6.65504359 3.72798669,6.47571606 C3.72798669,6.29638854 3.86232154,6.15691158 4.03503779,6.15691158 Z M0.734238436,15.2627646 L1.8089173,4.84184309 L3.6896053,4.84184309 L3.6896053,5.49937733 C3.30579142,5.6388543 3.03712171,6.01743462 3.03712171,6.45579078 C3.03712171,7.01369863 3.47850767,7.47198007 4.0158471,7.47198007 C4.55318653,7.47198007 4.99457249,7.01369863 4.99457249,6.45579078 C4.99457249,6.01743462 4.72590277,5.6388543 4.34208889,5.49937733 L4.34208889,4.84184309 L9.63872041,4.84184309 L9.63872041,5.49937733 C9.25490654,5.6388543 8.98623682,6.01743462 8.98623682,6.45579078 C8.98623682,7.01369863 9.42762278,7.47198007 9.96496221,7.47198007 C10.5023016,7.47198007 10.9436876,7.01369863 10.9436876,6.45579078 C10.9436876,6.01743462 10.6750179,5.6388543 10.291204,5.49937733 L10.291204,4.84184309 L12.2486548,4.84184309 L13.3233336,15.2627646 L0.734238436,15.2627646 Z" id="Shape"></path>
                </g>
                <g id="chat" transform="translate(324.000000, 11.000000)" fill="#FFFFFF" fill-rule="nonzero">
                    <path d="M13.6528781,2.34418605 C12.1407067,0.832135307 10.1346269,0 7.99661274,0 C5.85859857,0 3.85251881,0.832135307 2.34034739,2.34418605 C-0.582507425,5.26680761 -0.785483454,9.94503171 1.83629026,13.1010571 C1.57918729,13.6186047 1.16646936,14.2207188 0.554158338,14.5217759 C0.259843096,14.6672304 0.0940793389,14.9818182 0.144823346,15.3065539 C0.195567353,15.6312896 0.445904456,15.8849894 0.770666103,15.9357294 C0.922898124,15.959408 1.13940589,15.9830867 1.40327473,15.9830867 C2.11030789,15.9830867 3.15225151,15.8173362 4.21787566,15.0494715 C5.40528543,15.6887949 6.70433202,16 7.9932298,16 C10.0635853,16 12.1136432,15.1983087 13.656261,13.655814 C15.1684324,12.1437632 16.0006342,10.1378436 16.0006342,8 C16.0006342,5.86215645 15.1650495,3.85623679 13.6528781,2.34418605 Z M13.0067377,13.0097252 C10.7232574,15.2930233 7.18809156,15.7463002 4.40731996,14.1124736 C4.22464153,14.0042283 3.99798497,14.038055 3.85251881,14.1835095 C3.83898708,14.1902748 3.82545534,14.2004228 3.81530654,14.2105708 C2.89853147,14.9209302 1.99867108,15.0697674 1.40327473,15.0697674 L1.39989179,15.0697674 C2.08662736,14.5691332 2.51964289,13.8249471 2.77336292,13.2465116 C2.81395813,13.1484144 2.820724,13.0469345 2.79704346,12.9522199 C2.78689466,12.8608879 2.74968239,12.769556 2.68540664,12.6951374 C0.209099089,9.89767442 0.337650574,5.63551797 2.98310482,2.99027484 C5.74696175,0.226638478 10.2428808,0.226638478 13.0033548,2.99027484 C15.7705947,5.75391121 15.7705947,10.2460888 13.0067377,13.0097252 Z" id="Shape"></path>
                    <circle id="Oval" cx="8.23445243" cy="8.2384778" r="1"></circle>
                    <circle id="Oval" cx="11.1300127" cy="8.2384778" r="1"></circle>
                    <circle id="Oval" cx="5.33889218" cy="8.2384778" r="1"></circle>
                </g>
            </g>
        </g>
    </g>
</svg>